<svg xmlns="http://www.w3.org/2000/svg" width="1920" height="1080"><path d="M206,-316L430,-271L1106,-325Z" fill="#cbcbcf" stroke="#cbcbcf" stroke-width="1.51"/><path d="M978,1392L309,1423L1519,1426Z" fill="#71737c" stroke="#71737c" stroke-width="1.51"/><path d="M206,-316L1106,-325L1766,-347Z" fill="#bdbec2" stroke="#bdbec2" stroke-width="1.51"/><path d="M-162,-318L206,-316L1766,-347Z" fill="#cbcbcf" stroke="#cbcbcf" stroke-width="1.51"/><path d="M1106,-325L1626,-318L1766,-347Z" fill="#adaeb4" stroke="#adaeb4" stroke-width="1.51"/><path d="M1855,1430L1519,1426L1908,1435Z" fill="#565964" stroke="#565964" stroke-width="1.51"/><path d="M2059,1093L1986,1216L2062,1363Z" fill="#565964" stroke="#565964" stroke-width="1.51"/><path d="M2133,-327L1973,-94L2202,-56Z" fill="#90929a" stroke="#90929a" stroke-width="1.51"/><path d="M1994,103L2201,139L2202,-56Z" fill="#868790" stroke="#868790" stroke-width="1.51"/><path d="M2063,914L2059,1093L2214,737Z" fill="#62656f" stroke="#62656f" stroke-width="1.51"/><path d="M2059,1093L2062,1363L2214,737Z" fill="#5b5e69" stroke="#5b5e69" stroke-width="1.51"/><path d="M2146,477L2129,576L2214,737Z" fill="#6e707a" stroke="#6e707a" stroke-width="1.51"/><path d="M1905,233L2020,453L2218,204Z" fill="#7f8189" stroke="#7f8189" stroke-width="1.51"/><path d="M2201,139L1994,103L2218,204Z" fill="#82848c" stroke="#82848c" stroke-width="1.51"/><path d="M1994,103L1905,233L2218,204Z" fill="#84868e" stroke="#84868e" stroke-width="1.51"/><path d="M2020,453L2146,477L2218,204Z" fill="#797b83" stroke="#797b83" stroke-width="1.51"/><path d="M2146,477L2214,737L2218,204Z" fill="#73757e" stroke="#73757e" stroke-width="1.51"/><path d="M2202,-56L2201,139L2218,204Z" fill="#82848d" stroke="#82848d" stroke-width="1.51"/><path d="M2129,576L1899,808L2214,737Z" fill="#6c6e78" stroke="#6c6e78" stroke-width="1.51"/><path d="M1899,808L2063,914L2214,737Z" fill="#686a75" stroke="#686a75" stroke-width="1.51"/><path d="M2023,-342L1973,-94L2133,-327Z" fill="#96989f" stroke="#96989f" stroke-width="1.51"/><path d="M1973,-94L1994,103L2202,-56Z" fill="#8b8d96" stroke="#8b8d96" stroke-width="1.51"/><path d="M1865,556L1899,808L2129,576Z" fill="#72747e" stroke="#72747e" stroke-width="1.51"/><path d="M2020,453L2129,576L2146,477Z" fill="#747680" stroke="#747680" stroke-width="1.51"/><path d="M2020,453L1865,556L2129,576Z" fill="#777882" stroke="#777882" stroke-width="1.51"/><path d="M456,1388L309,1423L978,1392Z" fill="#7c7e87" stroke="#7c7e87" stroke-width="1.51"/><path d="M1915,1071L1986,1216L2059,1093Z" fill="#5c5f6a" stroke="#5c5f6a" stroke-width="1.51"/><path d="M1986,1216L1908,1435L2062,1363Z" fill="#535661" stroke="#535661" stroke-width="1.51"/><path d="M1915,1071L2059,1093L2063,914Z" fill="#60636d" stroke="#60636d" stroke-width="1.51"/><path d="M1899,808L1915,1071L2063,914Z" fill="#666873" stroke="#666873" stroke-width="1.51"/><path d="M1865,556L1818,580L1899,808Z" fill="#767881" stroke="#767881" stroke-width="1.51"/><path d="M1973,-94L1776,21L1994,103Z" fill="#909199" stroke="#909199" stroke-width="1.51"/><path d="M1905,233L1742,349L2020,453Z" fill="#82848d" stroke="#82848d" stroke-width="1.51"/><path d="M1742,349L1865,556L2020,453Z" fill="#7e8088" stroke="#7e8088" stroke-width="1.51"/><path d="M1766,-347L1973,-94L2023,-342Z" fill="#9b9ca4" stroke="#9b9ca4" stroke-width="1.51"/><path d="M1855,1430L1908,1435L1986,1216Z" fill="#545762" stroke="#545762" stroke-width="1.51"/><path d="M1899,808L1719,978L1915,1071Z" fill="#696b75" stroke="#696b75" stroke-width="1.51"/><path d="M1766,-347L1710,-49L1973,-94Z" fill="#9a9ba3" stroke="#9a9ba3" stroke-width="1.51"/><path d="M1856,1139L1855,1430L1986,1216Z" fill="#595b67" stroke="#595b67" stroke-width="1.51"/><path d="M1915,1071L1856,1139L1986,1216Z" fill="#5e606b" stroke="#5e606b" stroke-width="1.51"/><path d="M1776,21L1905,233L1994,103Z" fill="#8c8d96" stroke="#8c8d96" stroke-width="1.51"/><path d="M1710,-49L1776,21L1973,-94Z" fill="#95969e" stroke="#95969e" stroke-width="1.51"/><path d="M1660,1208L1855,1430L1856,1139Z" fill="#5d5f6a" stroke="#5d5f6a" stroke-width="1.51"/><path d="M1742,349L1703,490L1865,556Z" fill="#81838c" stroke="#81838c" stroke-width="1.51"/><path d="M1696,842L1719,978L1899,808Z" fill="#6f717b" stroke="#6f717b" stroke-width="1.51"/><path d="M1818,580L1696,842L1899,808Z" fill="#74767f" stroke="#74767f" stroke-width="1.51"/><path d="M1719,978L1856,1139L1915,1071Z" fill="#646671" stroke="#646671" stroke-width="1.51"/><path d="M1776,21L1609,239L1905,233Z" fill="#8e9098" stroke="#8e9098" stroke-width="1.51"/><path d="M1609,239L1742,349L1905,233Z" fill="#8a8b94" stroke="#8a8b94" stroke-width="1.51"/><path d="M1183,1353L978,1392L1519,1426Z" fill="#686b75" stroke="#686b75" stroke-width="1.51"/><path d="M1626,-318L1710,-49L1766,-347Z" fill="#a2a3aa" stroke="#a2a3aa" stroke-width="1.51"/><path d="M1703,490L1818,580L1865,556Z" fill="#7d7f88" stroke="#7d7f88" stroke-width="1.51"/><path d="M1660,1208L1519,1426L1855,1430Z" fill="#5c5e6a" stroke="#5c5e6a" stroke-width="1.51"/><path d="M1719,978L1660,1208L1856,1139Z" fill="#666772" stroke="#666772" stroke-width="1.51"/><path d="M1703,490L1513,667L1818,580Z" fill="#7f818a" stroke="#7f818a" stroke-width="1.51"/><path d="M1513,667L1696,842L1818,580Z" fill="#7a7c85" stroke="#7a7c85" stroke-width="1.51"/><path d="M1620,971L1660,1208L1719,978Z" fill="#6b6c77" stroke="#6b6c77" stroke-width="1.51"/><path d="M1669,-21L1547,164L1776,21Z" fill="#96989f" stroke="#96989f" stroke-width="1.51"/><path d="M1547,164L1609,239L1776,21Z" fill="#93959d" stroke="#93959d" stroke-width="1.51"/><path d="M1710,-49L1669,-21L1776,21Z" fill="#9899a0" stroke="#9899a0" stroke-width="1.51"/><path d="M1626,-318L1421,-116L1669,-21Z" fill="#a3a4aa" stroke="#a3a4aa" stroke-width="1.51"/><path d="M1626,-318L1669,-21L1710,-49Z" fill="#9e9fa6" stroke="#9e9fa6" stroke-width="1.51"/><path d="M1696,842L1620,971L1719,978Z" fill="#6f717c" stroke="#6f717c" stroke-width="1.51"/><path d="M1515,451L1703,490L1742,349Z" fill="#878991" stroke="#878991" stroke-width="1.51"/><path d="M1609,239L1515,451L1742,349Z" fill="#8b8d95" stroke="#8b8d95" stroke-width="1.51"/><path d="M1620,971L1478,1170L1660,1208Z" fill="#6a6c76" stroke="#6a6c76" stroke-width="1.51"/><path d="M1572,892L1620,971L1696,842Z" fill="#72747e" stroke="#72747e" stroke-width="1.51"/><path d="M1513,667L1572,892L1696,842Z" fill="#787a83" stroke="#787a83" stroke-width="1.51"/><path d="M1515,451L1513,667L1703,490Z" fill="#85868f" stroke="#85868f" stroke-width="1.51"/><path d="M1488,1009L1478,1170L1620,971Z" fill="#6f717b" stroke="#6f717b" stroke-width="1.51"/><path d="M1513,667L1482,841L1572,892Z" fill="#7a7c85" stroke="#7a7c85" stroke-width="1.51"/><path d="M1478,56L1547,164L1669,-21Z" fill="#9a9ba2" stroke="#9a9ba2" stroke-width="1.51"/><path d="M1478,1170L1420,1347L1519,1426Z" fill="#646771" stroke="#646771" stroke-width="1.51"/><path d="M1106,-325L1386,-188L1626,-318Z" fill="#afb0b6" stroke="#afb0b6" stroke-width="1.51"/><path d="M1386,-188L1421,-116L1626,-318Z" fill="#a8a9af" stroke="#a8a9af" stroke-width="1.51"/><path d="M1478,1170L1519,1426L1660,1208Z" fill="#646671" stroke="#646671" stroke-width="1.51"/><path d="M1421,-116L1478,56L1669,-21Z" fill="#9fa0a7" stroke="#9fa0a7" stroke-width="1.51"/><path d="M1403,411L1515,451L1609,239Z" fill="#8e9098" stroke="#8e9098" stroke-width="1.51"/><path d="M1406,553L1513,667L1515,451Z" fill="#878891" stroke="#878891" stroke-width="1.51"/><path d="M1572,892L1488,1009L1620,971Z" fill="#72747e" stroke="#72747e" stroke-width="1.51"/><path d="M1547,164L1403,411L1609,239Z" fill="#92939b" stroke="#92939b" stroke-width="1.51"/><path d="M1420,1347L1183,1353L1519,1426Z" fill="#656771" stroke="#656771" stroke-width="1.51"/><path d="M1337,349L1403,411L1547,164Z" fill="#93959c" stroke="#93959c" stroke-width="1.51"/><path d="M1482,841L1488,1009L1572,892Z" fill="#767881" stroke="#767881" stroke-width="1.51"/><path d="M430,-271L703,-226L1106,-325Z" fill="#c4c4c9" stroke="#c4c4c9" stroke-width="1.51"/><path d="M1478,56L1285,127L1547,164Z" fill="#9c9da4" stroke="#9c9da4" stroke-width="1.51"/><path d="M1285,127L1337,349L1547,164Z" fill="#999aa2" stroke="#999aa2" stroke-width="1.51"/><path d="M1315,704L1482,841L1513,667Z" fill="#80828b" stroke="#80828b" stroke-width="1.51"/><path d="M1403,411L1406,553L1515,451Z" fill="#8c8d96" stroke="#8c8d96" stroke-width="1.51"/><path d="M1482,841L1274,949L1488,1009Z" fill="#787a83" stroke="#787a83" stroke-width="1.51"/><path d="M1406,553L1315,704L1513,667Z" fill="#85878f" stroke="#85878f" stroke-width="1.51"/><path d="M1246,1257L1420,1347L1478,1170Z" fill="#6a6c76" stroke="#6a6c76" stroke-width="1.51"/><path d="M1274,949L1246,1257L1478,1170Z" fill="#71747d" stroke="#71747d" stroke-width="1.51"/><path d="M1421,-116L1285,127L1478,56Z" fill="#a1a2a9" stroke="#a1a2a9" stroke-width="1.51"/><path d="M1274,949L1478,1170L1488,1009Z" fill="#73757e" stroke="#73757e" stroke-width="1.51"/><path d="M1315,704L1274,949L1482,841Z" fill="#7f8089" stroke="#7f8089" stroke-width="1.51"/><path d="M1124,1073L1246,1257L1274,949Z" fill="#777982" stroke="#777982" stroke-width="1.51"/><path d="M1106,-325L1161,-197L1386,-188Z" fill="#b3b3b9" stroke="#b3b3b9" stroke-width="1.51"/><path d="M1403,411L1287,524L1406,553Z" fill="#8d8f97" stroke="#8d8f97" stroke-width="1.51"/><path d="M1287,524L1315,704L1406,553Z" fill="#8a8b93" stroke="#8a8b93" stroke-width="1.51"/><path d="M1386,-188L1144,-148L1421,-116Z" fill="#acacb2" stroke="#acacb2" stroke-width="1.51"/><path d="M1144,-148L1285,127L1421,-116Z" fill="#a8a9af" stroke="#a8a9af" stroke-width="1.51"/><path d="M1246,1257L1183,1353L1420,1347Z" fill="#6b6c77" stroke="#6b6c77" stroke-width="1.51"/><path d="M1337,349L1287,524L1403,411Z" fill="#91929a" stroke="#91929a" stroke-width="1.51"/><path d="M1190,733L1274,949L1315,704Z" fill="#83858d" stroke="#83858d" stroke-width="1.51"/><path d="M1285,127L1147,274L1337,349Z" fill="#9c9da4" stroke="#9c9da4" stroke-width="1.51"/><path d="M1161,-197L1144,-148L1386,-188Z" fill="#afb1b6" stroke="#afb1b6" stroke-width="1.51"/><path d="M1147,274L1092,307L1287,524Z" fill="#999aa1" stroke="#999aa1" stroke-width="1.51"/><path d="M1287,524L1190,733L1315,704Z" fill="#898b93" stroke="#898b93" stroke-width="1.51"/><path d="M1147,274L1287,524L1337,349Z" fill="#96979e" stroke="#96979e" stroke-width="1.51"/><path d="M703,-226L894,-230L1106,-325Z" fill="#bebfc3" stroke="#bebfc3" stroke-width="1.51"/><path d="M1144,-148L1016,86L1285,127Z" fill="#aaabb1" stroke="#aaabb1" stroke-width="1.51"/><path d="M1092,307L1084,546L1287,524Z" fill="#96979e" stroke="#96979e" stroke-width="1.51"/><path d="M1084,546L1190,733L1287,524Z" fill="#8e8f97" stroke="#8e8f97" stroke-width="1.51"/><path d="M1190,733L1067,764L1274,949Z" fill="#85868f" stroke="#85868f" stroke-width="1.51"/><path d="M1016,86L1147,274L1285,127Z" fill="#a3a4ab" stroke="#a3a4ab" stroke-width="1.51"/><path d="M1067,764L1124,1073L1274,949Z" fill="#80828b" stroke="#80828b" stroke-width="1.51"/><path d="M1124,1073L1183,1353L1246,1257Z" fill="#72747e" stroke="#72747e" stroke-width="1.51"/><path d="M995,473L1084,546L1092,307Z" fill="#9a9ba2" stroke="#9a9ba2" stroke-width="1.51"/><path d="M971,1087L957,1340L1124,1073Z" fill="#7a7c85" stroke="#7a7c85" stroke-width="1.51"/><path d="M1067,764L971,1087L1124,1073Z" fill="#82838c" stroke="#82838c" stroke-width="1.51"/><path d="M1124,1073L957,1340L1183,1353Z" fill="#73757f" stroke="#73757f" stroke-width="1.51"/><path d="M1084,546L1067,764L1190,733Z" fill="#8d8e96" stroke="#8d8e96" stroke-width="1.51"/><path d="M1137,-157L1144,-148L1161,-197Z" fill="#b2b3b8" stroke="#b2b3b8" stroke-width="1.51"/><path d="M957,1340L978,1392L1183,1353Z" fill="#70727b" stroke="#70727b" stroke-width="1.51"/><path d="M851,-23L1016,86L1137,-157Z" fill="#b1b2b7" stroke="#b1b2b7" stroke-width="1.51"/><path d="M1137,-157L1016,86L1144,-148Z" fill="#afb0b6" stroke="#afb0b6" stroke-width="1.51"/><path d="M1016,86L1092,307L1147,274Z" fill="#a3a4aa" stroke="#a3a4aa" stroke-width="1.51"/><path d="M1106,-325L1137,-157L1161,-197Z" fill="#b5b6bb" stroke="#b5b6bb" stroke-width="1.51"/><path d="M1106,-325L894,-230L1137,-157Z" fill="#b8b9be" stroke="#b8b9be" stroke-width="1.51"/><path d="M798,874L971,1087L1067,764Z" fill="#888a92" stroke="#888a92" stroke-width="1.51"/><path d="M894,-230L851,-23L1137,-157Z" fill="#b7b8bd" stroke="#b7b8bd" stroke-width="1.51"/><path d="M731,1298L456,1388L978,1392Z" fill="#7a7c85" stroke="#7a7c85" stroke-width="1.51"/><path d="M903,529L1067,764L1084,546Z" fill="#93949c" stroke="#93949c" stroke-width="1.51"/><path d="M903,529L824,612L1067,764Z" fill="#95969e" stroke="#95969e" stroke-width="1.51"/><path d="M1016,86L864,139L1092,307Z" fill="#a8a9af" stroke="#a8a9af" stroke-width="1.51"/><path d="M864,139L847,278L1092,307Z" fill="#a7a8ad" stroke="#a7a8ad" stroke-width="1.51"/><path d="M847,278L995,473L1092,307Z" fill="#a0a1a8" stroke="#a0a1a8" stroke-width="1.51"/><path d="M995,473L903,529L1084,546Z" fill="#999aa1" stroke="#999aa1" stroke-width="1.51"/><path d="M822,1049L891,1090L971,1087Z" fill="#82848d" stroke="#82848d" stroke-width="1.51"/><path d="M798,874L822,1049L971,1087Z" fill="#878891" stroke="#878891" stroke-width="1.51"/><path d="M824,612L798,874L1067,764Z" fill="#91929a" stroke="#91929a" stroke-width="1.51"/><path d="M739,695L798,874L824,612Z" fill="#96979e" stroke="#96979e" stroke-width="1.51"/><path d="M891,1090L957,1340L971,1087Z" fill="#7c7d87" stroke="#7c7d87" stroke-width="1.51"/><path d="M847,278L903,529L995,473Z" fill="#9fa0a7" stroke="#9fa0a7" stroke-width="1.51"/><path d="M851,-23L864,139L1016,86Z" fill="#afb0b6" stroke="#afb0b6" stroke-width="1.51"/><path d="M891,1090L731,1298L957,1340Z" fill="#7b7d86" stroke="#7b7d86" stroke-width="1.51"/><path d="M957,1340L731,1298L978,1392Z" fill="#757781" stroke="#757781" stroke-width="1.51"/><path d="M706,1239L731,1298L891,1090Z" fill="#80818a" stroke="#80818a" stroke-width="1.51"/><path d="M822,1049L706,1239L891,1090Z" fill="#82848c" stroke="#82848c" stroke-width="1.51"/><path d="M738,-171L851,-23L894,-230Z" fill="#bbbcc1" stroke="#bbbcc1" stroke-width="1.51"/><path d="M847,278L603,431L903,529Z" fill="#a4a5ab" stroke="#a4a5ab" stroke-width="1.51"/><path d="M603,431L824,612L903,529Z" fill="#9fa0a7" stroke="#9fa0a7" stroke-width="1.51"/><path d="M703,-226L738,-171L894,-230Z" fill="#c0c0c5" stroke="#c0c0c5" stroke-width="1.51"/><path d="M136,1392L-89,1409L309,1423Z" fill="#8a8b94" stroke="#8a8b94" stroke-width="1.51"/><path d="M739,695L681,764L798,874Z" fill="#95969d" stroke="#95969d" stroke-width="1.51"/><path d="M719,1032L706,1239L822,1049Z" fill="#85868f" stroke="#85868f" stroke-width="1.51"/><path d="M798,874L719,1032L822,1049Z" fill="#8a8b93" stroke="#8a8b93" stroke-width="1.51"/><path d="M629,271L603,431L847,278Z" fill="#abacb2" stroke="#abacb2" stroke-width="1.51"/><path d="M851,-23L651,156L864,139Z" fill="#b2b3b8" stroke="#b2b3b8" stroke-width="1.51"/><path d="M651,156L847,278L864,139Z" fill="#aeafb4" stroke="#aeafb4" stroke-width="1.51"/><path d="M651,156L629,271L847,278Z" fill="#aeafb5" stroke="#aeafb5" stroke-width="1.51"/><path d="M738,-171L548,-41L851,-23Z" fill="#bcbdc1" stroke="#bcbdc1" stroke-width="1.51"/><path d="M548,-41L651,156L851,-23Z" fill="#b8b9be" stroke="#b8b9be" stroke-width="1.51"/><path d="M555,592L739,695L824,612Z" fill="#9c9ea4" stroke="#9c9ea4" stroke-width="1.51"/><path d="M603,431L555,592L824,612Z" fill="#a2a3a9" stroke="#a2a3a9" stroke-width="1.51"/><path d="M681,764L719,1032L798,874Z" fill="#909199" stroke="#909199" stroke-width="1.51"/><path d="M594,1052L706,1239L719,1032Z" fill="#878991" stroke="#878991" stroke-width="1.51"/><path d="M681,764L594,1052L719,1032Z" fill="#909198" stroke="#909198" stroke-width="1.51"/><path d="M703,-226L548,-41L738,-171Z" fill="#c1c2c6" stroke="#c1c2c6" stroke-width="1.51"/><path d="M555,592L681,764L739,695Z" fill="#9c9da4" stroke="#9c9da4" stroke-width="1.51"/><path d="M497,736L594,1052L681,764Z" fill="#96979f" stroke="#96979f" stroke-width="1.51"/><path d="M706,1239L456,1388L731,1298Z" fill="#7f8189" stroke="#7f8189" stroke-width="1.51"/><path d="M555,592L497,736L681,764Z" fill="#9d9fa5" stroke="#9d9fa5" stroke-width="1.51"/><path d="M430,-271L548,-41L703,-226Z" fill="#c5c6ca" stroke="#c5c6ca" stroke-width="1.51"/><path d="M594,1052L452,1198L706,1239Z" fill="#878991" stroke="#878991" stroke-width="1.51"/><path d="M452,1198L456,1388L706,1239Z" fill="#84858e" stroke="#84858e" stroke-width="1.51"/><path d="M430,-271L404,-240L548,-41Z" fill="#c9cacd" stroke="#c9cacd" stroke-width="1.51"/><path d="M445,162L530,205L548,-41Z" fill="#babbbf" stroke="#babbbf" stroke-width="1.51"/><path d="M497,736L401,1063L594,1052Z" fill="#94959d" stroke="#94959d" stroke-width="1.51"/><path d="M454,389L603,431L629,271Z" fill="#adaeb3" stroke="#adaeb3" stroke-width="1.51"/><path d="M530,205L629,271L651,156Z" fill="#b2b3b9" stroke="#b2b3b9" stroke-width="1.51"/><path d="M548,-41L530,205L651,156Z" fill="#b8b9be" stroke="#b8b9be" stroke-width="1.51"/><path d="M530,205L454,389L629,271Z" fill="#b1b2b8" stroke="#b1b2b8" stroke-width="1.51"/><path d="M284,892L401,1063L497,736Z" fill="#9a9ba2" stroke="#9a9ba2" stroke-width="1.51"/><path d="M401,1063L452,1198L594,1052Z" fill="#8d8f97" stroke="#8d8f97" stroke-width="1.51"/><path d="M454,389L555,592L603,431Z" fill="#a9aab0" stroke="#a9aab0" stroke-width="1.51"/><path d="M369,412L372,620L454,389Z" fill="#aeafb4" stroke="#aeafb4" stroke-width="1.51"/><path d="M413,226L454,389L530,205Z" fill="#b4b5ba" stroke="#b4b5ba" stroke-width="1.51"/><path d="M404,-240L376,-28L548,-41Z" fill="#c6c7ca" stroke="#c6c7ca" stroke-width="1.51"/><path d="M376,-28L445,162L548,-41Z" fill="#bfc0c4" stroke="#bfc0c4" stroke-width="1.51"/><path d="M372,620L497,736L555,592Z" fill="#a3a4aa" stroke="#a3a4aa" stroke-width="1.51"/><path d="M454,389L372,620L555,592Z" fill="#a9aab0" stroke="#a9aab0" stroke-width="1.51"/><path d="M445,162L413,226L530,205Z" fill="#b7b8bd" stroke="#b7b8bd" stroke-width="1.51"/><path d="M376,-28L319,130L445,162Z" fill="#bfc0c4" stroke="#bfc0c4" stroke-width="1.51"/><path d="M372,620L284,892L497,736Z" fill="#a1a2a9" stroke="#a1a2a9" stroke-width="1.51"/><path d="M401,1063L331,1140L452,1198Z" fill="#8f9098" stroke="#8f9098" stroke-width="1.51"/><path d="M331,1140L309,1423L452,1198Z" fill="#8a8b93" stroke="#8a8b93" stroke-width="1.51"/><path d="M413,226L369,412L454,389Z" fill="#b3b4b9" stroke="#b3b4b9" stroke-width="1.51"/><path d="M452,1198L309,1423L456,1388Z" fill="#84868e" stroke="#84868e" stroke-width="1.51"/><path d="M206,-316L404,-240L430,-271Z" fill="#d1d1d5" stroke="#d1d1d5" stroke-width="1.51"/><path d="M319,130L413,226L445,162Z" fill="#bbbcc0" stroke="#bbbcc0" stroke-width="1.51"/><path d="M164,-100L376,-28L404,-240Z" fill="#cbcccf" stroke="#cbcccf" stroke-width="1.51"/><path d="M194,284L369,412L413,226Z" fill="#b7b8bd" stroke="#b7b8bd" stroke-width="1.51"/><path d="M121,772L284,892L372,620Z" fill="#a5a5ac" stroke="#a5a5ac" stroke-width="1.51"/><path d="M369,412L151,605L372,620Z" fill="#adaeb4" stroke="#adaeb4" stroke-width="1.51"/><path d="M284,892L182,977L401,1063Z" fill="#9a9ba2" stroke="#9a9ba2" stroke-width="1.51"/><path d="M319,130L194,284L413,226Z" fill="#bcbdc1" stroke="#bcbdc1" stroke-width="1.51"/><path d="M136,1392L309,1423L331,1140Z" fill="#8a8b93" stroke="#8a8b93" stroke-width="1.51"/><path d="M182,977L331,1140L401,1063Z" fill="#95979e" stroke="#95979e" stroke-width="1.51"/><path d="M206,-316L164,-100L404,-240Z" fill="#d1d1d5" stroke="#d1d1d5" stroke-width="1.51"/><path d="M151,605L121,772L372,620Z" fill="#aaacb1" stroke="#aaacb1" stroke-width="1.51"/><path d="M74,426L151,605L369,412Z" fill="#b3b4ba" stroke="#b3b4ba" stroke-width="1.51"/><path d="M164,-100L319,130L376,-28Z" fill="#c6c7cb" stroke="#c6c7cb" stroke-width="1.51"/><path d="M194,284L74,426L369,412Z" fill="#b8b9bd" stroke="#b8b9bd" stroke-width="1.51"/><path d="M-162,-318L24,-262L206,-316Z" fill="#dcdcdf" stroke="#dcdcdf" stroke-width="1.51"/><path d="M164,-100L61,176L319,130Z" fill="#c7c7cb" stroke="#c7c7cb" stroke-width="1.51"/><path d="M48,1203L136,1392L331,1140Z" fill="#8f9199" stroke="#8f9199" stroke-width="1.51"/><path d="M73,1093L48,1203L331,1140Z" fill="#96979f" stroke="#96979f" stroke-width="1.51"/><path d="M182,977L73,1093L331,1140Z" fill="#9899a0" stroke="#9899a0" stroke-width="1.51"/><path d="M61,176L194,284L319,130Z" fill="#c0c1c5" stroke="#c0c1c5" stroke-width="1.51"/><path d="M121,772L182,977L284,892Z" fill="#a1a2a9" stroke="#a1a2a9" stroke-width="1.51"/><path d="M-19,28L61,176L164,-100Z" fill="#ccccd0" stroke="#ccccd0" stroke-width="1.51"/><path d="M121,772L-55,943L182,977Z" fill="#a3a5ab" stroke="#a3a5ab" stroke-width="1.51"/><path d="M24,-262L164,-100L206,-316Z" fill="#d6d6d9" stroke="#d6d6d9" stroke-width="1.51"/><path d="M61,176L74,426L194,284Z" fill="#bfc0c4" stroke="#bfc0c4" stroke-width="1.51"/><path d="M1,706L121,772L151,605Z" fill="#adaeb3" stroke="#adaeb3" stroke-width="1.51"/><path d="M-55,943L73,1093L182,977Z" fill="#9fa1a7" stroke="#9fa1a7" stroke-width="1.51"/><path d="M61,176L-85,262L74,426Z" fill="#c2c3c7" stroke="#c2c3c7" stroke-width="1.51"/><path d="M24,-262L-64,-61L164,-100Z" fill="#d5d5d8" stroke="#d5d5d8" stroke-width="1.51"/><path d="M-64,-61L-19,28L164,-100Z" fill="#d1d1d4" stroke="#d1d1d4" stroke-width="1.51"/><path d="M-85,262L-42,413L74,426Z" fill="#bfc0c5" stroke="#bfc0c5" stroke-width="1.51"/><path d="M74,426L1,706L151,605Z" fill="#b3b4b9" stroke="#b3b4b9" stroke-width="1.51"/><path d="M-42,413L-151,524L1,706Z" fill="#b8b9bf" stroke="#b8b9bf" stroke-width="1.51"/><path d="M-42,413L1,706L74,426Z" fill="#b8b9be" stroke="#b8b9be" stroke-width="1.51"/><path d="M1,706L-117,843L121,772Z" fill="#acadb3" stroke="#acadb3" stroke-width="1.51"/><path d="M-117,843L-55,943L121,772Z" fill="#a8aab0" stroke="#a8aab0" stroke-width="1.51"/><path d="M48,1203L-89,1409L136,1392Z" fill="#8f9199" stroke="#8f9199" stroke-width="1.51"/><path d="M-151,524L-157,544L1,706Z" fill="#b8b8be" stroke="#b8b8be" stroke-width="1.51"/><path d="M-176,1238L-89,1409L48,1203Z" fill="#95979e" stroke="#95979e" stroke-width="1.51"/><path d="M-176,1238L48,1203L73,1093Z" fill="#999aa2" stroke="#999aa2" stroke-width="1.51"/><path d="M-55,943L-176,1238L73,1093Z" fill="#9fa0a6" stroke="#9fa0a6" stroke-width="1.51"/><path d="M-19,28L-85,262L61,176Z" fill="#c9cace" stroke="#c9cace" stroke-width="1.51"/><path d="M-176,1238L-129,1400L-89,1409Z" fill="#94959d" stroke="#94959d" stroke-width="1.51"/><path d="M-268,1060L-176,1238L-55,943Z" fill="#a2a3aa" stroke="#a2a3aa" stroke-width="1.51"/><path d="M-222,46L-85,262L-19,28Z" fill="#cecfd2" stroke="#cecfd2" stroke-width="1.51"/><path d="M-162,-318L-64,-61L24,-262Z" fill="#dcdcdf" stroke="#dcdcdf" stroke-width="1.51"/><path d="M-85,262L-141,319L-42,413Z" fill="#c3c4c8" stroke="#c3c4c8" stroke-width="1.51"/><path d="M-205,788L-117,843L1,706Z" fill="#afb0b6" stroke="#afb0b6" stroke-width="1.51"/><path d="M-157,544L-205,788L1,706Z" fill="#b4b5ba" stroke="#b4b5ba" stroke-width="1.51"/><path d="M-162,-318L-296,-124L-64,-61Z" fill="#dddde0" stroke="#dddde0" stroke-width="1.51"/><path d="M-64,-61L-222,46L-19,28Z" fill="#d3d3d6" stroke="#d3d3d6" stroke-width="1.51"/><path d="M-141,319L-151,524L-42,413Z" fill="#c1c1c5" stroke="#c1c1c5" stroke-width="1.51"/><path d="M-117,843L-268,1060L-55,943Z" fill="#a8a9b0" stroke="#a8a9b0" stroke-width="1.51"/><path d="M-296,-124L-222,46L-64,-61Z" fill="#d8d8db" stroke="#d8d8db" stroke-width="1.51"/><path d="M-222,46L-141,319L-85,262Z" fill="#cbcbcf" stroke="#cbcbcf" stroke-width="1.51"/><path d="M-176,1238L-268,1060L-129,1400Z" fill="#9c9da4" stroke="#9c9da4" stroke-width="1.51"/><path d="M-205,788L-268,1060L-117,843Z" fill="#acadb4" stroke="#acadb4" stroke-width="1.51"/><path d="M-157,544L-151,524L-141,319Z" fill="#c0c0c5" stroke="#c0c0c5" stroke-width="1.51"/><path d="M-222,46L-157,544L-141,319Z" fill="#c8c8cc" stroke="#c8c8cc" stroke-width="1.51"/><path d="M-222,46L-296,-124L-205,788Z" fill="#cdcdd1" stroke="#cdcdd1" stroke-width="1.51"/><path d="M-222,46L-205,788L-157,544Z" fill="#c1c1c7" stroke="#c1c1c7" stroke-width="1.51"/><path d="M-296,-124L-268,1060L-205,788Z" fill="#bebec3" stroke="#bebec3" stroke-width="1.51"/></svg>