<svg xmlns="http://www.w3.org/2000/svg" width="1920" height="1080"><path d="M206,-316L430,-271L1106,-325Z" fill="#1f2127" stroke="#1f2127" stroke-width="1.51"/><path d="M978,1392L309,1423L1519,1426Z" fill="#69696e" stroke="#69696e" stroke-width="1.51"/><path d="M206,-316L1106,-325L1766,-347Z" fill="#242428" stroke="#242428" stroke-width="1.51"/><path d="M-162,-318L206,-316L1766,-347Z" fill="#1f2026" stroke="#1f2026" stroke-width="1.51"/><path d="M1106,-325L1626,-318L1766,-347Z" fill="#2d2d2e" stroke="#2d2d2e" stroke-width="1.51"/><path d="M1855,1430L1519,1426L1908,1435Z" fill="#838383" stroke="#838383" stroke-width="1.51"/><path d="M2059,1093L1986,1216L2062,1363Z" fill="#828282" stroke="#828282" stroke-width="1.51"/><path d="M2133,-327L1973,-94L2202,-56Z" fill="#4e4f51" stroke="#4e4f51" stroke-width="1.51"/><path d="M1994,103L2201,139L2202,-56Z" fill="#595a5f" stroke="#595a5f" stroke-width="1.51"/><path d="M2063,914L2059,1093L2214,737Z" fill="#717171" stroke="#717171" stroke-width="1.51"/><path d="M2059,1093L2062,1363L2214,737Z" fill="#7b7b7b" stroke="#7b7b7b" stroke-width="1.51"/><path d="M2146,477L2129,576L2214,737Z" fill="#6a6a6d" stroke="#6a6a6d" stroke-width="1.51"/><path d="M1905,233L2020,453L2218,204Z" fill="#5e5f67" stroke="#5e5f67" stroke-width="1.51"/><path d="M2201,139L1994,103L2218,204Z" fill="#5d5f65" stroke="#5d5f65" stroke-width="1.51"/><path d="M1994,103L1905,233L2218,204Z" fill="#5a5b62" stroke="#5a5b62" stroke-width="1.51"/><path d="M2020,453L2146,477L2218,204Z" fill="#63646a" stroke="#63646a" stroke-width="1.51"/><path d="M2146,477L2214,737L2218,204Z" fill="#68696e" stroke="#68696e" stroke-width="1.51"/><path d="M2202,-56L2201,139L2218,204Z" fill="#5e5f65" stroke="#5e5f65" stroke-width="1.51"/><path d="M2129,576L1899,808L2214,737Z" fill="#68686a" stroke="#68686a" stroke-width="1.51"/><path d="M1899,808L2063,914L2214,737Z" fill="#69696a" stroke="#69696a" stroke-width="1.51"/><path d="M2023,-342L1973,-94L2133,-327Z" fill="#484849" stroke="#484849" stroke-width="1.51"/><path d="M1973,-94L1994,103L2202,-56Z" fill="#525357" stroke="#525357" stroke-width="1.51"/><path d="M1865,556L1899,808L2129,576Z" fill="#616164" stroke="#616164" stroke-width="1.51"/><path d="M2020,453L2129,576L2146,477Z" fill="#65666a" stroke="#65666a" stroke-width="1.51"/><path d="M2020,453L1865,556L2129,576Z" fill="#606165" stroke="#606165" stroke-width="1.51"/><path d="M456,1388L309,1423L978,1392Z" fill="#63646b" stroke="#63646b" stroke-width="1.51"/><path d="M1915,1071L1986,1216L2059,1093Z" fill="#797979" stroke="#797979" stroke-width="1.51"/><path d="M1986,1216L1908,1435L2062,1363Z" fill="#888888" stroke="#888888" stroke-width="1.51"/><path d="M1915,1071L2059,1093L2063,914Z" fill="#747474" stroke="#747474" stroke-width="1.51"/><path d="M1899,808L1915,1071L2063,914Z" fill="#6b6b6b" stroke="#6b6b6b" stroke-width="1.51"/><path d="M1865,556L1818,580L1899,808Z" fill="#5c5c5f" stroke="#5c5c5f" stroke-width="1.51"/><path d="M1973,-94L1776,21L1994,103Z" fill="#4d4d52" stroke="#4d4d52" stroke-width="1.51"/><path d="M1905,233L1742,349L2020,453Z" fill="#58585f" stroke="#58585f" stroke-width="1.51"/><path d="M1742,349L1865,556L2020,453Z" fill="#595a5f" stroke="#595a5f" stroke-width="1.51"/><path d="M1766,-347L1973,-94L2023,-342Z" fill="#424243" stroke="#424243" stroke-width="1.51"/><path d="M1855,1430L1908,1435L1986,1216Z" fill="#868686" stroke="#868686" stroke-width="1.51"/><path d="M1899,808L1719,978L1915,1071Z" fill="#666666" stroke="#666666" stroke-width="1.51"/><path d="M1766,-347L1710,-49L1973,-94Z" fill="#424244" stroke="#424244" stroke-width="1.51"/><path d="M1856,1139L1855,1430L1986,1216Z" fill="#7e7e7e" stroke="#7e7e7e" stroke-width="1.51"/><path d="M1915,1071L1856,1139L1986,1216Z" fill="#777777" stroke="#777777" stroke-width="1.51"/><path d="M1776,21L1905,233L1994,103Z" fill="#515157" stroke="#515157" stroke-width="1.51"/><path d="M1710,-49L1776,21L1973,-94Z" fill="#46474b" stroke="#46474b" stroke-width="1.51"/><path d="M1660,1208L1855,1430L1856,1139Z" fill="#787878" stroke="#787878" stroke-width="1.51"/><path d="M1742,349L1703,490L1865,556Z" fill="#54555a" stroke="#54555a" stroke-width="1.51"/><path d="M1696,842L1719,978L1899,808Z" fill="#5e5e5e" stroke="#5e5e5e" stroke-width="1.51"/><path d="M1818,580L1696,842L1899,808Z" fill="#5c5c5d" stroke="#5c5c5d" stroke-width="1.51"/><path d="M1719,978L1856,1139L1915,1071Z" fill="#6d6d6d" stroke="#6d6d6d" stroke-width="1.51"/><path d="M1776,21L1609,239L1905,233Z" fill="#4d4e54" stroke="#4d4e54" stroke-width="1.51"/><path d="M1609,239L1742,349L1905,233Z" fill="#505158" stroke="#505158" stroke-width="1.51"/><path d="M1183,1353L978,1392L1519,1426Z" fill="#6c6c6d" stroke="#6c6c6d" stroke-width="1.51"/><path d="M1626,-318L1710,-49L1766,-347Z" fill="#393a3b" stroke="#393a3b" stroke-width="1.51"/><path d="M1703,490L1818,580L1865,556Z" fill="#57585c" stroke="#57585c" stroke-width="1.51"/><path d="M1660,1208L1519,1426L1855,1430Z" fill="#7a7a7a" stroke="#7a7a7a" stroke-width="1.51"/><path d="M1719,978L1660,1208L1856,1139Z" fill="#6c6c6c" stroke="#6c6c6c" stroke-width="1.51"/><path d="M1703,490L1513,667L1818,580Z" fill="#535356" stroke="#535356" stroke-width="1.51"/><path d="M1513,667L1696,842L1818,580Z" fill="#555557" stroke="#555557" stroke-width="1.51"/><path d="M1620,971L1660,1208L1719,978Z" fill="#646464" stroke="#646464" stroke-width="1.51"/><path d="M1669,-21L1547,164L1776,21Z" fill="#434449" stroke="#434449" stroke-width="1.51"/><path d="M1547,164L1609,239L1776,21Z" fill="#46474d" stroke="#46474d" stroke-width="1.51"/><path d="M1710,-49L1669,-21L1776,21Z" fill="#434348" stroke="#434348" stroke-width="1.51"/><path d="M1626,-318L1421,-116L1669,-21Z" fill="#37383b" stroke="#37383b" stroke-width="1.51"/><path d="M1626,-318L1669,-21L1710,-49Z" fill="#3d3d40" stroke="#3d3d40" stroke-width="1.51"/><path d="M1696,842L1620,971L1719,978Z" fill="#5d5d5d" stroke="#5d5d5d" stroke-width="1.51"/><path d="M1515,451L1703,490L1742,349Z" fill="#4e4f54" stroke="#4e4f54" stroke-width="1.51"/><path d="M1609,239L1515,451L1742,349Z" fill="#4b4c52" stroke="#4b4c52" stroke-width="1.51"/><path d="M1620,971L1478,1170L1660,1208Z" fill="#656565" stroke="#656565" stroke-width="1.51"/><path d="M1572,892L1620,971L1696,842Z" fill="#595959" stroke="#595959" stroke-width="1.51"/><path d="M1513,667L1572,892L1696,842Z" fill="#535354" stroke="#535354" stroke-width="1.51"/><path d="M1515,451L1513,667L1703,490Z" fill="#4d4e51" stroke="#4d4e51" stroke-width="1.51"/><path d="M1488,1009L1478,1170L1620,971Z" fill="#5e5e5e" stroke="#5e5e5e" stroke-width="1.51"/><path d="M1513,667L1482,841L1572,892Z" fill="#4f5050" stroke="#4f5050" stroke-width="1.51"/><path d="M1478,56L1547,164L1669,-21Z" fill="#404146" stroke="#404146" stroke-width="1.51"/><path d="M1478,1170L1420,1347L1519,1426Z" fill="#6d6d6d" stroke="#6d6d6d" stroke-width="1.51"/><path d="M1106,-325L1386,-188L1626,-318Z" fill="#2a2a2b" stroke="#2a2a2b" stroke-width="1.51"/><path d="M1386,-188L1421,-116L1626,-318Z" fill="#313233" stroke="#313233" stroke-width="1.51"/><path d="M1478,1170L1519,1426L1660,1208Z" fill="#6e6e6e" stroke="#6e6e6e" stroke-width="1.51"/><path d="M1421,-116L1478,56L1669,-21Z" fill="#3a3b3f" stroke="#3a3b3f" stroke-width="1.51"/><path d="M1403,411L1515,451L1609,239Z" fill="#47484d" stroke="#47484d" stroke-width="1.51"/><path d="M1406,553L1513,667L1515,451Z" fill="#49494d" stroke="#49494d" stroke-width="1.51"/><path d="M1572,892L1488,1009L1620,971Z" fill="#595959" stroke="#595959" stroke-width="1.51"/><path d="M1547,164L1403,411L1609,239Z" fill="#45474d" stroke="#45474d" stroke-width="1.51"/><path d="M1420,1347L1183,1353L1519,1426Z" fill="#6d6d6d" stroke="#6d6d6d" stroke-width="1.51"/><path d="M1337,349L1403,411L1547,164Z" fill="#42434a" stroke="#42434a" stroke-width="1.51"/><path d="M1482,841L1488,1009L1572,892Z" fill="#545454" stroke="#545454" stroke-width="1.51"/><path d="M430,-271L703,-226L1106,-325Z" fill="#23242a" stroke="#23242a" stroke-width="1.51"/><path d="M1478,56L1285,127L1547,164Z" fill="#3c3d43" stroke="#3c3d43" stroke-width="1.51"/><path d="M1285,127L1337,349L1547,164Z" fill="#3e3f46" stroke="#3e3f46" stroke-width="1.51"/><path d="M1315,704L1482,841L1513,667Z" fill="#4a4a4c" stroke="#4a4a4c" stroke-width="1.51"/><path d="M1403,411L1406,553L1515,451Z" fill="#46474b" stroke="#46474b" stroke-width="1.51"/><path d="M1482,841L1274,949L1488,1009Z" fill="#515151" stroke="#515151" stroke-width="1.51"/><path d="M1406,553L1315,704L1513,667Z" fill="#47484b" stroke="#47484b" stroke-width="1.51"/><path d="M1246,1257L1420,1347L1478,1170Z" fill="#656565" stroke="#656565" stroke-width="1.51"/><path d="M1274,949L1246,1257L1478,1170Z" fill="#5c5c5c" stroke="#5c5c5c" stroke-width="1.51"/><path d="M1421,-116L1285,127L1478,56Z" fill="#37373c" stroke="#37373c" stroke-width="1.51"/><path d="M1274,949L1478,1170L1488,1009Z" fill="#585858" stroke="#585858" stroke-width="1.51"/><path d="M1315,704L1274,949L1482,841Z" fill="#4a494a" stroke="#4a494a" stroke-width="1.51"/><path d="M1124,1073L1246,1257L1274,949Z" fill="#58585a" stroke="#58585a" stroke-width="1.51"/><path d="M1106,-325L1161,-197L1386,-188Z" fill="#2a2a2d" stroke="#2a2a2d" stroke-width="1.51"/><path d="M1403,411L1287,524L1406,553Z" fill="#444449" stroke="#444449" stroke-width="1.51"/><path d="M1287,524L1315,704L1406,553Z" fill="#454549" stroke="#454549" stroke-width="1.51"/><path d="M1386,-188L1144,-148L1421,-116Z" fill="#2f2e32" stroke="#2f2e32" stroke-width="1.51"/><path d="M1144,-148L1285,127L1421,-116Z" fill="#323337" stroke="#323337" stroke-width="1.51"/><path d="M1246,1257L1183,1353L1420,1347Z" fill="#686869" stroke="#686869" stroke-width="1.51"/><path d="M1337,349L1287,524L1403,411Z" fill="#424248" stroke="#424248" stroke-width="1.51"/><path d="M1190,733L1274,949L1315,704Z" fill="#474749" stroke="#474749" stroke-width="1.51"/><path d="M1285,127L1147,274L1337,349Z" fill="#3d3e47" stroke="#3d3e47" stroke-width="1.51"/><path d="M1161,-197L1144,-148L1386,-188Z" fill="#2c2d30" stroke="#2c2d30" stroke-width="1.51"/><path d="M1147,274L1092,307L1287,524Z" fill="#3e3f47" stroke="#3e3f47" stroke-width="1.51"/><path d="M1287,524L1190,733L1315,704Z" fill="#454549" stroke="#454549" stroke-width="1.51"/><path d="M1147,274L1287,524L1337,349Z" fill="#404147" stroke="#404147" stroke-width="1.51"/><path d="M703,-226L894,-230L1106,-325Z" fill="#25262b" stroke="#25262b" stroke-width="1.51"/><path d="M1144,-148L1016,86L1285,127Z" fill="#33343a" stroke="#33343a" stroke-width="1.51"/><path d="M1092,307L1084,546L1287,524Z" fill="#404147" stroke="#404147" stroke-width="1.51"/><path d="M1084,546L1190,733L1287,524Z" fill="#434349" stroke="#434349" stroke-width="1.51"/><path d="M1190,733L1067,764L1274,949Z" fill="#47474a" stroke="#47474a" stroke-width="1.51"/><path d="M1016,86L1147,274L1285,127Z" fill="#383a42" stroke="#383a42" stroke-width="1.51"/><path d="M1067,764L1124,1073L1274,949Z" fill="#4c4d4e" stroke="#4c4d4e" stroke-width="1.51"/><path d="M1124,1073L1183,1353L1246,1257Z" fill="#606062" stroke="#606062" stroke-width="1.51"/><path d="M995,473L1084,546L1092,307Z" fill="#3e3f47" stroke="#3e3f47" stroke-width="1.51"/><path d="M971,1087L957,1340L1124,1073Z" fill="#5a5a5e" stroke="#5a5a5e" stroke-width="1.51"/><path d="M1067,764L971,1087L1124,1073Z" fill="#4e4e51" stroke="#4e4e51" stroke-width="1.51"/><path d="M1124,1073L957,1340L1183,1353Z" fill="#616164" stroke="#616164" stroke-width="1.51"/><path d="M1084,546L1067,764L1190,733Z" fill="#444448" stroke="#444448" stroke-width="1.51"/><path d="M1137,-157L1144,-148L1161,-197Z" fill="#2c2c30" stroke="#2c2c30" stroke-width="1.51"/><path d="M957,1340L978,1392L1183,1353Z" fill="#67686b" stroke="#67686b" stroke-width="1.51"/><path d="M851,-23L1016,86L1137,-157Z" fill="#2f3037" stroke="#2f3037" stroke-width="1.51"/><path d="M1137,-157L1016,86L1144,-148Z" fill="#2e2f35" stroke="#2e2f35" stroke-width="1.51"/><path d="M1016,86L1092,307L1147,274Z" fill="#3a3c45" stroke="#3a3c45" stroke-width="1.51"/><path d="M1106,-325L1137,-157L1161,-197Z" fill="#292a2d" stroke="#292a2d" stroke-width="1.51"/><path d="M1106,-325L894,-230L1137,-157Z" fill="#28282c" stroke="#28282c" stroke-width="1.51"/><path d="M798,874L971,1087L1067,764Z" fill="#48494d" stroke="#48494d" stroke-width="1.51"/><path d="M894,-230L851,-23L1137,-157Z" fill="#2a2b31" stroke="#2a2b31" stroke-width="1.51"/><path d="M731,1298L456,1388L978,1392Z" fill="#626369" stroke="#626369" stroke-width="1.51"/><path d="M903,529L1067,764L1084,546Z" fill="#404147" stroke="#404147" stroke-width="1.51"/><path d="M903,529L824,612L1067,764Z" fill="#404148" stroke="#404148" stroke-width="1.51"/><path d="M1016,86L864,139L1092,307Z" fill="#363942" stroke="#363942" stroke-width="1.51"/><path d="M864,139L847,278L1092,307Z" fill="#393a46" stroke="#393a46" stroke-width="1.51"/><path d="M847,278L995,473L1092,307Z" fill="#3b3d46" stroke="#3b3d46" stroke-width="1.51"/><path d="M995,473L903,529L1084,546Z" fill="#3f4047" stroke="#3f4047" stroke-width="1.51"/><path d="M822,1049L891,1090L971,1087Z" fill="#535358" stroke="#535358" stroke-width="1.51"/><path d="M798,874L822,1049L971,1087Z" fill="#4d4e52" stroke="#4d4e52" stroke-width="1.51"/><path d="M824,612L798,874L1067,764Z" fill="#424248" stroke="#424248" stroke-width="1.51"/><path d="M739,695L798,874L824,612Z" fill="#404148" stroke="#404148" stroke-width="1.51"/><path d="M891,1090L957,1340L971,1087Z" fill="#595a5e" stroke="#595a5e" stroke-width="1.51"/><path d="M847,278L903,529L995,473Z" fill="#3c3d47" stroke="#3c3d47" stroke-width="1.51"/><path d="M851,-23L864,139L1016,86Z" fill="#31333c" stroke="#31333c" stroke-width="1.51"/><path d="M891,1090L731,1298L957,1340Z" fill="#5d5d62" stroke="#5d5d62" stroke-width="1.51"/><path d="M957,1340L731,1298L978,1392Z" fill="#646469" stroke="#646469" stroke-width="1.51"/><path d="M706,1239L731,1298L891,1090Z" fill="#5a5b60" stroke="#5a5b60" stroke-width="1.51"/><path d="M822,1049L706,1239L891,1090Z" fill="#54555a" stroke="#54555a" stroke-width="1.51"/><path d="M738,-171L851,-23L894,-230Z" fill="#282a31" stroke="#282a31" stroke-width="1.51"/><path d="M847,278L603,431L903,529Z" fill="#3a3c46" stroke="#3a3c46" stroke-width="1.51"/><path d="M603,431L824,612L903,529Z" fill="#3c3d47" stroke="#3c3d47" stroke-width="1.51"/><path d="M703,-226L738,-171L894,-230Z" fill="#26272d" stroke="#26272d" stroke-width="1.51"/><path d="M136,1392L-89,1409L309,1423Z" fill="#56565a" stroke="#56565a" stroke-width="1.51"/><path d="M739,695L681,764L798,874Z" fill="#414147" stroke="#414147" stroke-width="1.51"/><path d="M719,1032L706,1239L822,1049Z" fill="#525359" stroke="#525359" stroke-width="1.51"/><path d="M798,874L719,1032L822,1049Z" fill="#4b4c51" stroke="#4b4c51" stroke-width="1.51"/><path d="M629,271L603,431L847,278Z" fill="#373945" stroke="#373945" stroke-width="1.51"/><path d="M851,-23L651,156L864,139Z" fill="#31333d" stroke="#31333d" stroke-width="1.51"/><path d="M651,156L847,278L864,139Z" fill="#343742" stroke="#343742" stroke-width="1.51"/><path d="M651,156L629,271L847,278Z" fill="#363844" stroke="#363844" stroke-width="1.51"/><path d="M738,-171L548,-41L851,-23Z" fill="#2a2b34" stroke="#2a2b34" stroke-width="1.51"/><path d="M548,-41L651,156L851,-23Z" fill="#2d2f39" stroke="#2d2f39" stroke-width="1.51"/><path d="M555,592L739,695L824,612Z" fill="#3d3e47" stroke="#3d3e47" stroke-width="1.51"/><path d="M603,431L555,592L824,612Z" fill="#3b3c46" stroke="#3b3c46" stroke-width="1.51"/><path d="M681,764L719,1032L798,874Z" fill="#44454b" stroke="#44454b" stroke-width="1.51"/><path d="M594,1052L706,1239L719,1032Z" fill="#515259" stroke="#515259" stroke-width="1.51"/><path d="M681,764L594,1052L719,1032Z" fill="#47484e" stroke="#47484e" stroke-width="1.51"/><path d="M703,-226L548,-41L738,-171Z" fill="#262830" stroke="#262830" stroke-width="1.51"/><path d="M555,592L681,764L739,695Z" fill="#3d3f47" stroke="#3d3f47" stroke-width="1.51"/><path d="M497,736L594,1052L681,764Z" fill="#404148" stroke="#404148" stroke-width="1.51"/><path d="M706,1239L456,1388L731,1298Z" fill="#5e5e66" stroke="#5e5e66" stroke-width="1.51"/><path d="M555,592L497,736L681,764Z" fill="#3d3e47" stroke="#3d3e47" stroke-width="1.51"/><path d="M430,-271L548,-41L703,-226Z" fill="#24252e" stroke="#24252e" stroke-width="1.51"/><path d="M594,1052L452,1198L706,1239Z" fill="#53555c" stroke="#53555c" stroke-width="1.51"/><path d="M452,1198L456,1388L706,1239Z" fill="#5a5c63" stroke="#5a5c63" stroke-width="1.51"/><path d="M430,-271L404,-240L548,-41Z" fill="#21232a" stroke="#21232a" stroke-width="1.51"/><path d="M445,162L530,205L548,-41Z" fill="#2d2f3b" stroke="#2d2f3b" stroke-width="1.51"/><path d="M497,736L401,1063L594,1052Z" fill="#44454c" stroke="#44454c" stroke-width="1.51"/><path d="M454,389L603,431L629,271Z" fill="#363845" stroke="#363845" stroke-width="1.51"/><path d="M530,205L629,271L651,156Z" fill="#333542" stroke="#333542" stroke-width="1.51"/><path d="M548,-41L530,205L651,156Z" fill="#2e313d" stroke="#2e313d" stroke-width="1.51"/><path d="M530,205L454,389L629,271Z" fill="#343744" stroke="#343744" stroke-width="1.51"/><path d="M284,892L401,1063L497,736Z" fill="#3e3f45" stroke="#3e3f45" stroke-width="1.51"/><path d="M401,1063L452,1198L594,1052Z" fill="#4d4f56" stroke="#4d4f56" stroke-width="1.51"/><path d="M454,389L555,592L603,431Z" fill="#383a45" stroke="#383a45" stroke-width="1.51"/><path d="M369,412L372,620L454,389Z" fill="#33363f" stroke="#33363f" stroke-width="1.51"/><path d="M413,226L454,389L530,205Z" fill="#313441" stroke="#313441" stroke-width="1.51"/><path d="M404,-240L376,-28L548,-41Z" fill="#24252e" stroke="#24252e" stroke-width="1.51"/><path d="M376,-28L445,162L548,-41Z" fill="#282b35" stroke="#282b35" stroke-width="1.51"/><path d="M372,620L497,736L555,592Z" fill="#393b44" stroke="#393b44" stroke-width="1.51"/><path d="M454,389L372,620L555,592Z" fill="#363842" stroke="#363842" stroke-width="1.51"/><path d="M445,162L413,226L530,205Z" fill="#30323e" stroke="#30323e" stroke-width="1.51"/><path d="M376,-28L319,130L445,162Z" fill="#292b36" stroke="#292b36" stroke-width="1.51"/><path d="M372,620L284,892L497,736Z" fill="#393a40" stroke="#393a40" stroke-width="1.51"/><path d="M401,1063L331,1140L452,1198Z" fill="#4c4d54" stroke="#4c4d54" stroke-width="1.51"/><path d="M331,1140L309,1423L452,1198Z" fill="#54555a" stroke="#54555a" stroke-width="1.51"/><path d="M413,226L369,412L454,389Z" fill="#31333f" stroke="#31333f" stroke-width="1.51"/><path d="M452,1198L309,1423L456,1388Z" fill="#5a5b62" stroke="#5a5b62" stroke-width="1.51"/><path d="M206,-316L404,-240L430,-271Z" fill="#1b1c22" stroke="#1b1c22" stroke-width="1.51"/><path d="M319,130L413,226L445,162Z" fill="#2c2e3b" stroke="#2c2e3b" stroke-width="1.51"/><path d="M164,-100L376,-28L404,-240Z" fill="#1f2128" stroke="#1f2128" stroke-width="1.51"/><path d="M194,284L369,412L413,226Z" fill="#2e313c" stroke="#2e313c" stroke-width="1.51"/><path d="M121,772L284,892L372,620Z" fill="#35363c" stroke="#35363c" stroke-width="1.51"/><path d="M369,412L151,605L372,620Z" fill="#32343c" stroke="#32343c" stroke-width="1.51"/><path d="M284,892L182,977L401,1063Z" fill="#404146" stroke="#404146" stroke-width="1.51"/><path d="M319,130L194,284L413,226Z" fill="#2c2e39" stroke="#2c2e39" stroke-width="1.51"/><path d="M136,1392L309,1423L331,1140Z" fill="#54555b" stroke="#54555b" stroke-width="1.51"/><path d="M182,977L331,1140L401,1063Z" fill="#45464b" stroke="#45464b" stroke-width="1.51"/><path d="M206,-316L164,-100L404,-240Z" fill="#1b1c22" stroke="#1b1c22" stroke-width="1.51"/><path d="M151,605L121,772L372,620Z" fill="#323339" stroke="#323339" stroke-width="1.51"/><path d="M74,426L151,605L369,412Z" fill="#2e3038" stroke="#2e3038" stroke-width="1.51"/><path d="M164,-100L319,130L376,-28Z" fill="#23252e" stroke="#23252e" stroke-width="1.51"/><path d="M194,284L74,426L369,412Z" fill="#2d2e38" stroke="#2d2e38" stroke-width="1.51"/><path d="M-162,-318L24,-262L206,-316Z" fill="#121216" stroke="#121216" stroke-width="1.51"/><path d="M164,-100L61,176L319,130Z" fill="#23242d" stroke="#23242d" stroke-width="1.51"/><path d="M48,1203L136,1392L331,1140Z" fill="#4d4e52" stroke="#4d4e52" stroke-width="1.51"/><path d="M73,1093L48,1203L331,1140Z" fill="#46474b" stroke="#46474b" stroke-width="1.51"/><path d="M182,977L73,1093L331,1140Z" fill="#434348" stroke="#434348" stroke-width="1.51"/><path d="M61,176L194,284L319,130Z" fill="#282a34" stroke="#282a34" stroke-width="1.51"/><path d="M121,772L182,977L284,892Z" fill="#37383c" stroke="#37383c" stroke-width="1.51"/><path d="M-19,28L61,176L164,-100Z" fill="#1f2027" stroke="#1f2027" stroke-width="1.51"/><path d="M121,772L-55,943L182,977Z" fill="#353539" stroke="#353539" stroke-width="1.51"/><path d="M24,-262L164,-100L206,-316Z" fill="#17181c" stroke="#17181c" stroke-width="1.51"/><path d="M61,176L74,426L194,284Z" fill="#282b34" stroke="#282b34" stroke-width="1.51"/><path d="M1,706L121,772L151,605Z" fill="#2f3035" stroke="#2f3035" stroke-width="1.51"/><path d="M-55,943L73,1093L182,977Z" fill="#3b3b3f" stroke="#3b3b3f" stroke-width="1.51"/><path d="M61,176L-85,262L74,426Z" fill="#262830" stroke="#262830" stroke-width="1.51"/><path d="M24,-262L-64,-61L164,-100Z" fill="#18191e" stroke="#18191e" stroke-width="1.51"/><path d="M-64,-61L-19,28L164,-100Z" fill="#1b1c22" stroke="#1b1c22" stroke-width="1.51"/><path d="M-85,262L-42,413L74,426Z" fill="#26282f" stroke="#26282f" stroke-width="1.51"/><path d="M74,426L1,706L151,605Z" fill="#2d2e33" stroke="#2d2e33" stroke-width="1.51"/><path d="M-42,413L-151,524L1,706Z" fill="#28292f" stroke="#28292f" stroke-width="1.51"/><path d="M-42,413L1,706L74,426Z" fill="#2a2b31" stroke="#2a2b31" stroke-width="1.51"/><path d="M1,706L-117,843L121,772Z" fill="#2e2f32" stroke="#2e2f32" stroke-width="1.51"/><path d="M-117,843L-55,943L121,772Z" fill="#303033" stroke="#303033" stroke-width="1.51"/><path d="M48,1203L-89,1409L136,1392Z" fill="#4e4f52" stroke="#4e4f52" stroke-width="1.51"/><path d="M-151,524L-157,544L1,706Z" fill="#28292d" stroke="#28292d" stroke-width="1.51"/><path d="M-176,1238L-89,1409L48,1203Z" fill="#48494a" stroke="#48494a" stroke-width="1.51"/><path d="M-176,1238L48,1203L73,1093Z" fill="#434446" stroke="#434446" stroke-width="1.51"/><path d="M-55,943L-176,1238L73,1093Z" fill="#3d3e40" stroke="#3d3e40" stroke-width="1.51"/><path d="M-19,28L-85,262L61,176Z" fill="#21232b" stroke="#21232b" stroke-width="1.51"/><path d="M-176,1238L-129,1400L-89,1409Z" fill="#4a4b4c" stroke="#4a4b4c" stroke-width="1.51"/><path d="M-268,1060L-176,1238L-55,943Z" fill="#39393a" stroke="#39393a" stroke-width="1.51"/><path d="M-222,46L-85,262L-19,28Z" fill="#1d1f25" stroke="#1d1f25" stroke-width="1.51"/><path d="M-162,-318L-64,-61L24,-262Z" fill="#131317" stroke="#131317" stroke-width="1.51"/><path d="M-85,262L-141,319L-42,413Z" fill="#24252d" stroke="#24252d" stroke-width="1.51"/><path d="M-205,788L-117,843L1,706Z" fill="#2c2c2e" stroke="#2c2c2e" stroke-width="1.51"/><path d="M-157,544L-205,788L1,706Z" fill="#292a2d" stroke="#292a2d" stroke-width="1.51"/><path d="M-162,-318L-296,-124L-64,-61Z" fill="#111215" stroke="#111215" stroke-width="1.51"/><path d="M-64,-61L-222,46L-19,28Z" fill="#191b20" stroke="#191b20" stroke-width="1.51"/><path d="M-141,319L-151,524L-42,413Z" fill="#25262c" stroke="#25262c" stroke-width="1.51"/><path d="M-117,843L-268,1060L-55,943Z" fill="#323233" stroke="#323233" stroke-width="1.51"/><path d="M-296,-124L-222,46L-64,-61Z" fill="#16161a" stroke="#16161a" stroke-width="1.51"/><path d="M-222,46L-141,319L-85,262Z" fill="#202128" stroke="#202128" stroke-width="1.51"/><path d="M-176,1238L-268,1060L-129,1400Z" fill="#424243" stroke="#424243" stroke-width="1.51"/><path d="M-205,788L-268,1060L-117,843Z" fill="#2d2d2e" stroke="#2d2d2e" stroke-width="1.51"/><path d="M-157,544L-151,524L-141,319Z" fill="#25252b" stroke="#25252b" stroke-width="1.51"/><path d="M-222,46L-157,544L-141,319Z" fill="#212229" stroke="#212229" stroke-width="1.51"/><path d="M-222,46L-296,-124L-205,788Z" fill="#1e2026" stroke="#1e2026" stroke-width="1.51"/><path d="M-222,46L-205,788L-157,544Z" fill="#242429" stroke="#242429" stroke-width="1.51"/><path d="M-296,-124L-268,1060L-205,788Z" fill="#242427" stroke="#242427" stroke-width="1.51"/></svg>