<svg xmlns="http://www.w3.org/2000/svg" width="1920" height="1080"><path d="M-159,-202L47,-197L504,-217Z" fill="#4f525e" stroke="#4f525e" stroke-width="1.51"/><path d="M529,1296L453,1297L881,1298Z" fill="#d0d0d3" stroke="#d0d0d3" stroke-width="1.51"/><path d="M504,-217L665,-192L1021,-206Z" fill="#797b84" stroke="#797b84" stroke-width="1.51"/><path d="M504,-217L1021,-206L1297,-216Z" fill="#878991" stroke="#878991" stroke-width="1.51"/><path d="M1021,-206L1133,-201L1297,-216Z" fill="#8b8c94" stroke="#8b8c94" stroke-width="1.51"/><path d="M1285,1252L881,1298L1518,1294Z" fill="#eeeded" stroke="#eeeded" stroke-width="1.51"/><path d="M1637,1255L1518,1294L1897,1267Z" fill="#f1f1f1" stroke="#f1f1f1" stroke-width="1.51"/><path d="M1998,1226L1897,1267L2066,1244Z" fill="#f3f2f2" stroke="#f3f2f2" stroke-width="1.51"/><path d="M2085,1101L2066,1244L2110,995Z" fill="#f3f2f2" stroke="#f3f2f2" stroke-width="1.51"/><path d="M504,-217L1297,-216L2112,-220Z" fill="#8b8c94" stroke="#8b8c94" stroke-width="1.51"/><path d="M1297,-216L1381,-213L2112,-220Z" fill="#8d8f96" stroke="#8d8f96" stroke-width="1.51"/><path d="M1381,-213L1535,-189L2112,-220Z" fill="#8e9098" stroke="#8e9098" stroke-width="1.51"/><path d="M1710,-156L1858,-154L2112,-220Z" fill="#94959d" stroke="#94959d" stroke-width="1.51"/><path d="M1535,-189L1710,-156L2112,-220Z" fill="#92939a" stroke="#92939a" stroke-width="1.51"/><path d="M1858,-154L1985,-145L2112,-220Z" fill="#95969d" stroke="#95969d" stroke-width="1.51"/><path d="M1985,-145L2060,-67L2112,-220Z" fill="#999aa1" stroke="#999aa1" stroke-width="1.51"/><path d="M2060,-67L2102,84L2112,-220Z" fill="#a2a2a9" stroke="#a2a2a9" stroke-width="1.51"/><path d="M2112,-220L2102,84L2115,160Z" fill="#ababb1" stroke="#ababb1" stroke-width="1.51"/><path d="M1989,792L2079,889L2121,769Z" fill="#efeeee" stroke="#efeeee" stroke-width="1.51"/><path d="M2106,524L2068,656L2121,769Z" fill="#ededed" stroke="#ededed" stroke-width="1.51"/><path d="M2079,889L2110,995L2121,769Z" fill="#f0efef" stroke="#f0efef" stroke-width="1.51"/><path d="M2115,160L1988,272L2133,260Z" fill="#c6c6c9" stroke="#c6c6c9" stroke-width="1.51"/><path d="M1988,272L2069,412L2133,260Z" fill="#cfd0d3" stroke="#cfd0d3" stroke-width="1.51"/><path d="M2069,412L2106,524L2133,260Z" fill="#dadadc" stroke="#dadadc" stroke-width="1.51"/><path d="M2112,-220L2115,160L2133,260Z" fill="#b2b2b8" stroke="#b2b2b8" stroke-width="1.51"/><path d="M2106,524L2121,769L2133,260Z" fill="#e9e9e9" stroke="#e9e9e9" stroke-width="1.51"/><path d="M1998,1226L2066,1244L2085,1101Z" fill="#f3f2f2" stroke="#f3f2f2" stroke-width="1.51"/><path d="M2060,-67L1948,34L2102,84Z" fill="#abacb2" stroke="#abacb2" stroke-width="1.51"/><path d="M2003,640L2068,656L2106,524Z" fill="#ececec" stroke="#ececec" stroke-width="1.51"/><path d="M2012,1030L2085,1101L2110,995Z" fill="#f2f1f1" stroke="#f2f1f1" stroke-width="1.51"/><path d="M1948,199L1988,272L2115,160Z" fill="#c3c3c7" stroke="#c3c3c7" stroke-width="1.51"/><path d="M2068,656L1989,792L2121,769Z" fill="#eeeded" stroke="#eeeded" stroke-width="1.51"/><path d="M1969,509L2003,640L2106,524Z" fill="#ebebeb" stroke="#ebebeb" stroke-width="1.51"/><path d="M2069,412L1969,509L2106,524Z" fill="#e4e4e4" stroke="#e4e4e4" stroke-width="1.51"/><path d="M2079,889L2012,1030L2110,995Z" fill="#f1f0f0" stroke="#f1f0f0" stroke-width="1.51"/><path d="M2102,84L1948,199L2115,160Z" fill="#bbbcc0" stroke="#bbbcc0" stroke-width="1.51"/><path d="M1963,1142L1998,1226L2085,1101Z" fill="#f3f2f2" stroke="#f3f2f2" stroke-width="1.51"/><path d="M1949,938L2012,1030L2079,889Z" fill="#f0efef" stroke="#f0efef" stroke-width="1.51"/><path d="M1948,34L1948,199L2102,84Z" fill="#b6b6bb" stroke="#b6b6bb" stroke-width="1.51"/><path d="M1955,-54L1948,34L2060,-67Z" fill="#a6a6ad" stroke="#a6a6ad" stroke-width="1.51"/><path d="M2003,640L1989,792L2068,656Z" fill="#ededed" stroke="#ededed" stroke-width="1.51"/><path d="M1949,440L1969,509L2069,412Z" fill="#e0e0e1" stroke="#e0e0e1" stroke-width="1.51"/><path d="M2012,1030L1963,1142L2085,1101Z" fill="#f2f1f1" stroke="#f2f1f1" stroke-width="1.51"/><path d="M1988,272L1949,440L2069,412Z" fill="#d7d7d9" stroke="#d7d7d9" stroke-width="1.51"/><path d="M1989,792L1949,938L2079,889Z" fill="#efefef" stroke="#efefef" stroke-width="1.51"/><path d="M1985,-145L1955,-54L2060,-67Z" fill="#9fa0a6" stroke="#9fa0a6" stroke-width="1.51"/><path d="M1848,1003L1852,1119L1963,1142Z" fill="#f1f0f0" stroke="#f1f0f0" stroke-width="1.51"/><path d="M1894,267L1949,440L1988,272Z" fill="#d0d1d3" stroke="#d0d1d3" stroke-width="1.51"/><path d="M1897,936L1949,938L1989,792Z" fill="#efeeee" stroke="#efeeee" stroke-width="1.51"/><path d="M1878,667L1863,777L1989,792Z" fill="#edecec" stroke="#edecec" stroke-width="1.51"/><path d="M1969,509L1875,548L2003,640Z" fill="#ebebeb" stroke="#ebebeb" stroke-width="1.51"/><path d="M1878,667L1989,792L2003,640Z" fill="#edecec" stroke="#edecec" stroke-width="1.51"/><path d="M1848,1003L1963,1142L2012,1030Z" fill="#f1f0f0" stroke="#f1f0f0" stroke-width="1.51"/><path d="M1949,938L1848,1003L2012,1030Z" fill="#f0efef" stroke="#f0efef" stroke-width="1.51"/><path d="M1863,777L1897,936L1989,792Z" fill="#eeeded" stroke="#eeeded" stroke-width="1.51"/><path d="M1875,548L1878,667L2003,640Z" fill="#ebebeb" stroke="#ebebeb" stroke-width="1.51"/><path d="M1963,1142L1897,1267L1998,1226Z" fill="#f3f2f2" stroke="#f3f2f2" stroke-width="1.51"/><path d="M1948,34L1838,46L1948,199Z" fill="#b4b4b9" stroke="#b4b4b9" stroke-width="1.51"/><path d="M1838,46L1844,193L1948,199Z" fill="#bababf" stroke="#bababf" stroke-width="1.51"/><path d="M1897,936L1848,1003L1949,938Z" fill="#efefef" stroke="#efefef" stroke-width="1.51"/><path d="M1894,267L1897,453L1949,440Z" fill="#d7d7d9" stroke="#d7d7d9" stroke-width="1.51"/><path d="M1870,-77L1955,-54L1985,-145Z" fill="#9e9fa6" stroke="#9e9fa6" stroke-width="1.51"/><path d="M1948,199L1894,267L1988,272Z" fill="#c7c7ca" stroke="#c7c7ca" stroke-width="1.51"/><path d="M1858,-154L1870,-77L1985,-145Z" fill="#9a9ba2" stroke="#9a9ba2" stroke-width="1.51"/><path d="M1852,1119L1897,1267L1963,1142Z" fill="#f2f1f1" stroke="#f2f1f1" stroke-width="1.51"/><path d="M1949,440L1897,453L1969,509Z" fill="#e1e1e2" stroke="#e1e1e2" stroke-width="1.51"/><path d="M1897,453L1875,548L1969,509Z" fill="#e6e5e6" stroke="#e6e5e6" stroke-width="1.51"/><path d="M1706,1221L1637,1255L1897,1267Z" fill="#f1f1f1" stroke="#f1f1f1" stroke-width="1.51"/><path d="M1870,-77L1948,34L1955,-54Z" fill="#a5a6ac" stroke="#a5a6ac" stroke-width="1.51"/><path d="M1870,-77L1838,46L1948,34Z" fill="#a9a9af" stroke="#a9a9af" stroke-width="1.51"/><path d="M1844,193L1894,267L1948,199Z" fill="#c3c3c7" stroke="#c3c3c7" stroke-width="1.51"/><path d="M1838,46L1771,69L1844,193Z" fill="#b4b5ba" stroke="#b4b5ba" stroke-width="1.51"/><path d="M1875,548L1762,571L1878,667Z" fill="#eaeaea" stroke="#eaeaea" stroke-width="1.51"/><path d="M1730,457L1875,548L1897,453Z" fill="#e3e3e3" stroke="#e3e3e3" stroke-width="1.51"/><path d="M1894,267L1776,262L1897,453Z" fill="#d0d0d2" stroke="#d0d0d2" stroke-width="1.51"/><path d="M1776,262L1730,457L1897,453Z" fill="#d7d7d9" stroke="#d7d7d9" stroke-width="1.51"/><path d="M1863,777L1750,937L1897,936Z" fill="#eeeded" stroke="#eeeded" stroke-width="1.51"/><path d="M1750,937L1848,1003L1897,936Z" fill="#efeeee" stroke="#efeeee" stroke-width="1.51"/><path d="M1852,1119L1706,1221L1897,1267Z" fill="#f2f1f1" stroke="#f2f1f1" stroke-width="1.51"/><path d="M1844,193L1776,262L1894,267Z" fill="#c5c5c8" stroke="#c5c5c8" stroke-width="1.51"/><path d="M1740,763L1750,937L1863,777Z" fill="#edecec" stroke="#edecec" stroke-width="1.51"/><path d="M1741,-83L1838,46L1870,-77Z" fill="#a4a4ab" stroke="#a4a4ab" stroke-width="1.51"/><path d="M1730,457L1762,571L1875,548Z" fill="#e7e7e7" stroke="#e7e7e7" stroke-width="1.51"/><path d="M1740,763L1863,777L1878,667Z" fill="#ecebeb" stroke="#ecebeb" stroke-width="1.51"/><path d="M1724,673L1740,763L1878,667Z" fill="#ebebeb" stroke="#ebebeb" stroke-width="1.51"/><path d="M1762,571L1724,673L1878,667Z" fill="#eaeaea" stroke="#eaeaea" stroke-width="1.51"/><path d="M665,-192L877,-186L1021,-206Z" fill="#83858d" stroke="#83858d" stroke-width="1.51"/><path d="M1702,1151L1706,1221L1852,1119Z" fill="#f1f0f0" stroke="#f1f0f0" stroke-width="1.51"/><path d="M1858,-154L1741,-83L1870,-77Z" fill="#9c9da3" stroke="#9c9da3" stroke-width="1.51"/><path d="M1848,1003L1712,1052L1852,1119Z" fill="#f0efef" stroke="#f0efef" stroke-width="1.51"/><path d="M1771,69L1762,213L1844,193Z" fill="#bbbbbf" stroke="#bbbbbf" stroke-width="1.51"/><path d="M1741,-83L1771,69L1838,46Z" fill="#a9aaaf" stroke="#a9aaaf" stroke-width="1.51"/><path d="M1710,-156L1741,-83L1858,-154Z" fill="#9899a0" stroke="#9899a0" stroke-width="1.51"/><path d="M1535,-189L1586,-161L1710,-156Z" fill="#93949b" stroke="#93949b" stroke-width="1.51"/><path d="M1762,213L1776,262L1844,193Z" fill="#c3c3c6" stroke="#c3c3c6" stroke-width="1.51"/><path d="M1712,1052L1702,1151L1852,1119Z" fill="#f0efef" stroke="#f0efef" stroke-width="1.51"/><path d="M1750,937L1712,1052L1848,1003Z" fill="#efeeee" stroke="#efeeee" stroke-width="1.51"/><path d="M1604,302L1653,451L1730,457Z" fill="#d7d8d9" stroke="#d7d8d9" stroke-width="1.51"/><path d="M1740,763L1633,871L1750,937Z" fill="#edecec" stroke="#edecec" stroke-width="1.51"/><path d="M1583,87L1597,208L1762,213Z" fill="#bbbbbf" stroke="#bbbbbf" stroke-width="1.51"/><path d="M1741,-83L1659,-83L1771,69Z" fill="#a4a4aa" stroke="#a4a4aa" stroke-width="1.51"/><path d="M1659,-83L1583,87L1771,69Z" fill="#aaabb0" stroke="#aaabb0" stroke-width="1.51"/><path d="M1583,87L1762,213L1771,69Z" fill="#b6b6bb" stroke="#b6b6bb" stroke-width="1.51"/><path d="M1762,213L1604,302L1776,262Z" fill="#c6c6c9" stroke="#c6c6c9" stroke-width="1.51"/><path d="M1604,302L1730,457L1776,262Z" fill="#d0d0d2" stroke="#d0d0d2" stroke-width="1.51"/><path d="M1730,457L1623,510L1762,571Z" fill="#e5e5e5" stroke="#e5e5e5" stroke-width="1.51"/><path d="M1160,1237L881,1298L1285,1252Z" fill="#edecec" stroke="#edecec" stroke-width="1.51"/><path d="M1623,510L1724,673L1762,571Z" fill="#e9e9e9" stroke="#e9e9e9" stroke-width="1.51"/><path d="M1597,208L1604,302L1762,213Z" fill="#c4c4c7" stroke="#c4c4c7" stroke-width="1.51"/><path d="M1653,451L1623,510L1730,457Z" fill="#e0e0e1" stroke="#e0e0e1" stroke-width="1.51"/><path d="M1596,796L1633,871L1740,763Z" fill="#ecebeb" stroke="#ecebeb" stroke-width="1.51"/><path d="M1612,1041L1712,1052L1750,937Z" fill="#efeeee" stroke="#efeeee" stroke-width="1.51"/><path d="M1633,871L1612,1041L1750,937Z" fill="#eeeded" stroke="#eeeded" stroke-width="1.51"/><path d="M1623,510L1612,699L1724,673Z" fill="#e9e9e9" stroke="#e9e9e9" stroke-width="1.51"/><path d="M1724,673L1612,699L1740,763Z" fill="#ebeaea" stroke="#ebeaea" stroke-width="1.51"/><path d="M1710,-156L1659,-83L1741,-83Z" fill="#9b9ba3" stroke="#9b9ba3" stroke-width="1.51"/><path d="M1612,699L1596,796L1740,763Z" fill="#ebeaea" stroke="#ebeaea" stroke-width="1.51"/><path d="M1612,1041L1702,1151L1712,1052Z" fill="#efeeee" stroke="#efeeee" stroke-width="1.51"/><path d="M1536,558L1612,699L1623,510Z" fill="#e8e8e8" stroke="#e8e8e8" stroke-width="1.51"/><path d="M1612,1041L1589,1169L1702,1151Z" fill="#efeeee" stroke="#efeeee" stroke-width="1.51"/><path d="M1702,1151L1589,1169L1706,1221Z" fill="#f0f0f0" stroke="#f0f0f0" stroke-width="1.51"/><path d="M1589,1169L1637,1255L1706,1221Z" fill="#f0f0f0" stroke="#f0f0f0" stroke-width="1.51"/><path d="M1586,-161L1659,-83L1710,-156Z" fill="#97989f" stroke="#97989f" stroke-width="1.51"/><path d="M1378,1248L1285,1252L1518,1294Z" fill="#efeeee" stroke="#efeeee" stroke-width="1.51"/><path d="M1536,558L1504,652L1612,699Z" fill="#e8e8e8" stroke="#e8e8e8" stroke-width="1.51"/><path d="M1516,992L1612,1041L1633,871Z" fill="#edecec" stroke="#edecec" stroke-width="1.51"/><path d="M1604,302L1518,447L1653,451Z" fill="#d7d6d8" stroke="#d7d6d8" stroke-width="1.51"/><path d="M1586,-161L1493,-23L1659,-83Z" fill="#9c9da3" stroke="#9c9da3" stroke-width="1.51"/><path d="M1493,-23L1583,87L1659,-83Z" fill="#a5a6ac" stroke="#a5a6ac" stroke-width="1.51"/><path d="M1493,-23L1491,26L1583,87Z" fill="#a9aaaf" stroke="#a9aaaf" stroke-width="1.51"/><path d="M1518,447L1623,510L1653,451Z" fill="#dfdfe0" stroke="#dfdfe0" stroke-width="1.51"/><path d="M1583,87L1534,189L1597,208Z" fill="#bababe" stroke="#bababe" stroke-width="1.51"/><path d="M1467,919L1516,992L1633,871Z" fill="#ececec" stroke="#ececec" stroke-width="1.51"/><path d="M1589,1169L1518,1294L1637,1255Z" fill="#f0efef" stroke="#f0efef" stroke-width="1.51"/><path d="M1472,1106L1589,1169L1612,1041Z" fill="#eeeeee" stroke="#eeeeee" stroke-width="1.51"/><path d="M1596,796L1467,919L1633,871Z" fill="#ecebeb" stroke="#ecebeb" stroke-width="1.51"/><path d="M1495,758L1596,796L1612,699Z" fill="#eaeaea" stroke="#eaeaea" stroke-width="1.51"/><path d="M1518,447L1536,558L1623,510Z" fill="#e3e3e3" stroke="#e3e3e3" stroke-width="1.51"/><path d="M1597,208L1534,189L1604,302Z" fill="#c2c2c6" stroke="#c2c2c6" stroke-width="1.51"/><path d="M1534,189L1461,268L1604,302Z" fill="#c4c5c8" stroke="#c4c5c8" stroke-width="1.51"/><path d="M1461,268L1518,447L1604,302Z" fill="#cfcfd1" stroke="#cfcfd1" stroke-width="1.51"/><path d="M1504,652L1495,758L1612,699Z" fill="#e9e9e9" stroke="#e9e9e9" stroke-width="1.51"/><path d="M1516,992L1472,1106L1612,1041Z" fill="#ededed" stroke="#ededed" stroke-width="1.51"/><path d="M1535,-189L1493,-23L1586,-161Z" fill="#97999f" stroke="#97999f" stroke-width="1.51"/><path d="M1495,758L1467,919L1596,796Z" fill="#ebeaea" stroke="#ebeaea" stroke-width="1.51"/><path d="M1472,1106L1518,1294L1589,1169Z" fill="#efeeee" stroke="#efeeee" stroke-width="1.51"/><path d="M1491,26L1534,189L1583,87Z" fill="#b2b2b7" stroke="#b2b2b7" stroke-width="1.51"/><path d="M1381,-213L1349,-57L1493,-23Z" fill="#9a9aa1" stroke="#9a9aa1" stroke-width="1.51"/><path d="M1384,776L1467,919L1495,758Z" fill="#eae9e9" stroke="#eae9e9" stroke-width="1.51"/><path d="M1472,1106L1378,1248L1518,1294Z" fill="#efeeee" stroke="#efeeee" stroke-width="1.51"/><path d="M1461,268L1369,417L1518,447Z" fill="#d3d3d4" stroke="#d3d3d4" stroke-width="1.51"/><path d="M1491,26L1399,153L1534,189Z" fill="#b4b5b9" stroke="#b4b5b9" stroke-width="1.51"/><path d="M1381,-213L1493,-23L1535,-189Z" fill="#95969d" stroke="#95969d" stroke-width="1.51"/><path d="M1518,447L1359,542L1536,558Z" fill="#e4e4e4" stroke="#e4e4e4" stroke-width="1.51"/><path d="M1359,542L1504,652L1536,558Z" fill="#e7e7e7" stroke="#e7e7e7" stroke-width="1.51"/><path d="M1399,153L1461,268L1534,189Z" fill="#bebec2" stroke="#bebec2" stroke-width="1.51"/><path d="M1404,681L1495,758L1504,652Z" fill="#e9e9e9" stroke="#e9e9e9" stroke-width="1.51"/><path d="M1359,542L1404,681L1504,652Z" fill="#e7e7e7" stroke="#e7e7e7" stroke-width="1.51"/><path d="M1387,990L1472,1106L1516,992Z" fill="#edecec" stroke="#edecec" stroke-width="1.51"/><path d="M1369,417L1359,542L1518,447Z" fill="#dddede" stroke="#dddede" stroke-width="1.51"/><path d="M1467,919L1387,990L1516,992Z" fill="#ecebeb" stroke="#ecebeb" stroke-width="1.51"/><path d="M1384,776L1363,901L1467,919Z" fill="#ebeaea" stroke="#ebeaea" stroke-width="1.51"/><path d="M1356,1125L1378,1248L1472,1106Z" fill="#eeeded" stroke="#eeeded" stroke-width="1.51"/><path d="M1355,28L1399,153L1491,26Z" fill="#adaeb3" stroke="#adaeb3" stroke-width="1.51"/><path d="M1357,266L1369,417L1461,268Z" fill="#cbcbce" stroke="#cbcbce" stroke-width="1.51"/><path d="M1355,28L1491,26L1493,-23Z" fill="#a7a7ad" stroke="#a7a7ad" stroke-width="1.51"/><path d="M1404,681L1384,776L1495,758Z" fill="#e9e9e9" stroke="#e9e9e9" stroke-width="1.51"/><path d="M1349,-57L1355,28L1493,-23Z" fill="#a3a4aa" stroke="#a3a4aa" stroke-width="1.51"/><path d="M1399,153L1357,266L1461,268Z" fill="#c0c1c4" stroke="#c0c1c4" stroke-width="1.51"/><path d="M1387,990L1356,1125L1472,1106Z" fill="#edecec" stroke="#edecec" stroke-width="1.51"/><path d="M1363,901L1387,990L1467,919Z" fill="#ebebeb" stroke="#ebebeb" stroke-width="1.51"/><path d="M1257,557L1233,659L1359,542Z" fill="#e6e6e6" stroke="#e6e6e6" stroke-width="1.51"/><path d="M1356,1125L1275,1179L1378,1248Z" fill="#eeeded" stroke="#eeeded" stroke-width="1.51"/><path d="M1297,-216L1349,-57L1381,-213Z" fill="#92939a" stroke="#92939a" stroke-width="1.51"/><path d="M1256,1010L1356,1125L1387,990Z" fill="#ececec" stroke="#ececec" stroke-width="1.51"/><path d="M1291,142L1357,266L1399,153Z" fill="#babcbf" stroke="#babcbf" stroke-width="1.51"/><path d="M1355,28L1291,142L1399,153Z" fill="#b1b2b7" stroke="#b1b2b7" stroke-width="1.51"/><path d="M1359,542L1233,659L1404,681Z" fill="#e7e7e7" stroke="#e7e7e7" stroke-width="1.51"/><path d="M1262,754L1384,776L1404,681Z" fill="#e8e8e8" stroke="#e8e8e8" stroke-width="1.51"/><path d="M1233,659L1262,754L1404,681Z" fill="#e7e7e7" stroke="#e7e7e7" stroke-width="1.51"/><path d="M1357,266L1222,337L1369,417Z" fill="#cdcdcf" stroke="#cdcdcf" stroke-width="1.51"/><path d="M1245,885L1363,901L1384,776Z" fill="#eae9e9" stroke="#eae9e9" stroke-width="1.51"/><path d="M1262,754L1245,885L1384,776Z" fill="#e8e8e8" stroke="#e8e8e8" stroke-width="1.51"/><path d="M1297,-216L1228,-91L1349,-57Z" fill="#96979e" stroke="#96979e" stroke-width="1.51"/><path d="M1233,449L1359,542L1369,417Z" fill="#dddddd" stroke="#dddddd" stroke-width="1.51"/><path d="M1275,1179L1285,1252L1378,1248Z" fill="#eeeded" stroke="#eeeded" stroke-width="1.51"/><path d="M1363,901L1256,1010L1387,990Z" fill="#ebebeb" stroke="#ebebeb" stroke-width="1.51"/><path d="M1349,-57L1267,20L1355,28Z" fill="#a4a5ab" stroke="#a4a5ab" stroke-width="1.51"/><path d="M1267,20L1291,142L1355,28Z" fill="#acacb2" stroke="#acacb2" stroke-width="1.51"/><path d="M1233,449L1257,557L1359,542Z" fill="#e2e2e3" stroke="#e2e2e3" stroke-width="1.51"/><path d="M1245,885L1256,1010L1363,901Z" fill="#eaeaea" stroke="#eaeaea" stroke-width="1.51"/><path d="M1222,337L1233,449L1369,417Z" fill="#d4d4d6" stroke="#d4d4d6" stroke-width="1.51"/><path d="M1046,1225L881,1298L1160,1237Z" fill="#ecebeb" stroke="#ecebeb" stroke-width="1.51"/><path d="M1256,1010L1275,1179L1356,1125Z" fill="#ececec" stroke="#ececec" stroke-width="1.51"/><path d="M1291,142L1222,337L1357,266Z" fill="#c2c2c5" stroke="#c2c2c5" stroke-width="1.51"/><path d="M1228,-91L1267,20L1349,-57Z" fill="#9fa0a6" stroke="#9fa0a6" stroke-width="1.51"/><path d="M665,-192L746,-180L877,-186Z" fill="#7d7f88" stroke="#7d7f88" stroke-width="1.51"/><path d="M747,1274L529,1296L881,1298Z" fill="#d9d8da" stroke="#d9d8da" stroke-width="1.51"/><path d="M1256,1010L1144,1112L1275,1179Z" fill="#ecebeb" stroke="#ecebeb" stroke-width="1.51"/><path d="M1118,266L1222,337L1291,142Z" fill="#c1c2c5" stroke="#c1c2c5" stroke-width="1.51"/><path d="M1115,176L1118,266L1291,142Z" fill="#babbbf" stroke="#babbbf" stroke-width="1.51"/><path d="M1267,20L1102,69L1291,142Z" fill="#adadb3" stroke="#adadb3" stroke-width="1.51"/><path d="M1133,-201L1228,-91L1297,-216Z" fill="#909199" stroke="#909199" stroke-width="1.51"/><path d="M1228,-91L1178,-58L1267,20Z" fill="#9e9fa6" stroke="#9e9fa6" stroke-width="1.51"/><path d="M1275,1179L1160,1237L1285,1252Z" fill="#ededed" stroke="#ededed" stroke-width="1.51"/><path d="M1102,69L1115,176L1291,142Z" fill="#b2b3b7" stroke="#b2b3b7" stroke-width="1.51"/><path d="M1136,863L1245,885L1262,754Z" fill="#e8e8e8" stroke="#e8e8e8" stroke-width="1.51"/><path d="M1245,885L1135,994L1256,1010Z" fill="#eaeaea" stroke="#eaeaea" stroke-width="1.51"/><path d="M1118,781L1136,863L1262,754Z" fill="#e7e7e7" stroke="#e7e7e7" stroke-width="1.51"/><path d="M1144,1112L1160,1237L1275,1179Z" fill="#ececec" stroke="#ececec" stroke-width="1.51"/><path d="M1222,337L1151,388L1233,449Z" fill="#d3d3d4" stroke="#d3d3d4" stroke-width="1.51"/><path d="M1162,662L1233,659L1257,557Z" fill="#e6e6e6" stroke="#e6e6e6" stroke-width="1.51"/><path d="M1233,659L1162,662L1262,754Z" fill="#e7e6e6" stroke="#e7e6e6" stroke-width="1.51"/><path d="M1178,-58L1102,69L1267,20Z" fill="#a4a5ab" stroke="#a4a5ab" stroke-width="1.51"/><path d="M1135,994L1144,1112L1256,1010Z" fill="#eaeaea" stroke="#eaeaea" stroke-width="1.51"/><path d="M1111,567L1162,662L1257,557Z" fill="#e5e5e5" stroke="#e5e5e5" stroke-width="1.51"/><path d="M1233,449L1111,567L1257,557Z" fill="#e3e3e3" stroke="#e3e3e3" stroke-width="1.51"/><path d="M1162,662L1118,781L1262,754Z" fill="#e7e6e6" stroke="#e7e6e6" stroke-width="1.51"/><path d="M1136,863L1135,994L1245,885Z" fill="#e9e9e9" stroke="#e9e9e9" stroke-width="1.51"/><path d="M1133,-201L1178,-58L1228,-91Z" fill="#95969e" stroke="#95969e" stroke-width="1.51"/><path d="M1151,388L1057,507L1233,449Z" fill="#d9d9da" stroke="#d9d9da" stroke-width="1.51"/><path d="M1057,507L1111,567L1233,449Z" fill="#e0e0e1" stroke="#e0e0e1" stroke-width="1.51"/><path d="M1118,266L1151,388L1222,337Z" fill="#cbcbcd" stroke="#cbcbcd" stroke-width="1.51"/><path d="M1144,1112L1046,1225L1160,1237Z" fill="#ecebeb" stroke="#ecebeb" stroke-width="1.51"/><path d="M1133,-201L1052,-45L1178,-58Z" fill="#97989f" stroke="#97989f" stroke-width="1.51"/><path d="M1052,-45L1102,69L1178,-58Z" fill="#a1a2a8" stroke="#a1a2a8" stroke-width="1.51"/><path d="M1021,-206L1052,-45L1133,-201Z" fill="#919299" stroke="#919299" stroke-width="1.51"/><path d="M989,905L1135,994L1136,863Z" fill="#e8e8e8" stroke="#e8e8e8" stroke-width="1.51"/><path d="M1135,994L1003,1014L1144,1112Z" fill="#eaeaea" stroke="#eaeaea" stroke-width="1.51"/><path d="M1019,395L1057,507L1151,388Z" fill="#d6d6d8" stroke="#d6d6d8" stroke-width="1.51"/><path d="M1118,266L1027,312L1151,388Z" fill="#c9cacc" stroke="#c9cacc" stroke-width="1.51"/><path d="M1111,567L990,626L1162,662Z" fill="#e5e5e5" stroke="#e5e5e5" stroke-width="1.51"/><path d="M988,745L1118,781L1162,662Z" fill="#e6e6e6" stroke="#e6e6e6" stroke-width="1.51"/><path d="M990,626L988,745L1162,662Z" fill="#e5e5e5" stroke="#e5e5e5" stroke-width="1.51"/><path d="M1102,69L1059,150L1115,176Z" fill="#b2b3b8" stroke="#b2b3b8" stroke-width="1.51"/><path d="M1005,1157L1046,1225L1144,1112Z" fill="#ebebeb" stroke="#ebebeb" stroke-width="1.51"/><path d="M1027,312L1019,395L1151,388Z" fill="#cecfd1" stroke="#cecfd1" stroke-width="1.51"/><path d="M989,905L1003,1014L1135,994Z" fill="#e8e8e8" stroke="#e8e8e8" stroke-width="1.51"/><path d="M1003,1014L1005,1157L1144,1112Z" fill="#eaeaea" stroke="#eaeaea" stroke-width="1.51"/><path d="M1118,781L989,905L1136,863Z" fill="#e8e7e7" stroke="#e8e7e7" stroke-width="1.51"/><path d="M1052,82L1059,150L1102,69Z" fill="#afafb4" stroke="#afafb4" stroke-width="1.51"/><path d="M1052,-45L1052,82L1102,69Z" fill="#a7a8ad" stroke="#a7a8ad" stroke-width="1.51"/><path d="M1115,176L1059,150L1118,266Z" fill="#babbbe" stroke="#babbbe" stroke-width="1.51"/><path d="M1059,150L1027,312L1118,266Z" fill="#bfc0c3" stroke="#bfc0c3" stroke-width="1.51"/><path d="M988,745L989,905L1118,781Z" fill="#e7e6e6" stroke="#e7e6e6" stroke-width="1.51"/><path d="M1057,507L990,626L1111,567Z" fill="#e4e4e4" stroke="#e4e4e4" stroke-width="1.51"/><path d="M932,148L910,298L1027,312Z" fill="#bfc0c3" stroke="#bfc0c3" stroke-width="1.51"/><path d="M1021,-206L938,-74L1052,-45Z" fill="#96979d" stroke="#96979d" stroke-width="1.51"/><path d="M938,-74L938,96L1052,-45Z" fill="#a1a2a8" stroke="#a1a2a8" stroke-width="1.51"/><path d="M1052,-45L938,96L1052,82Z" fill="#a7a8ae" stroke="#a7a8ae" stroke-width="1.51"/><path d="M880,523L990,626L1057,507Z" fill="#e3e3e3" stroke="#e3e3e3" stroke-width="1.51"/><path d="M1019,395L920,426L1057,507Z" fill="#d7d7d9" stroke="#d7d7d9" stroke-width="1.51"/><path d="M932,148L1027,312L1059,150Z" fill="#babbbe" stroke="#babbbe" stroke-width="1.51"/><path d="M1052,82L938,96L1059,150Z" fill="#afb0b4" stroke="#afb0b4" stroke-width="1.51"/><path d="M938,96L932,148L1059,150Z" fill="#b1b2b7" stroke="#b1b2b7" stroke-width="1.51"/><path d="M920,426L880,523L1057,507Z" fill="#dbdcdc" stroke="#dbdcdc" stroke-width="1.51"/><path d="M1005,1157L916,1160L1046,1225Z" fill="#ebeaea" stroke="#ebeaea" stroke-width="1.51"/><path d="M916,1160L881,1298L1046,1225Z" fill="#eaeaea" stroke="#eaeaea" stroke-width="1.51"/><path d="M47,-197L399,-188L504,-217Z" fill="#5c5e6a" stroke="#5c5e6a" stroke-width="1.51"/><path d="M988,745L877,899L989,905Z" fill="#e6e6e6" stroke="#e6e6e6" stroke-width="1.51"/><path d="M931,661L988,745L990,626Z" fill="#e4e4e4" stroke="#e4e4e4" stroke-width="1.51"/><path d="M1003,1014L884,1056L1005,1157Z" fill="#e9e9e9" stroke="#e9e9e9" stroke-width="1.51"/><path d="M884,1056L916,1160L1005,1157Z" fill="#e8e7e7" stroke="#e8e7e7" stroke-width="1.51"/><path d="M910,298L920,426L1019,395Z" fill="#cdced0" stroke="#cdced0" stroke-width="1.51"/><path d="M877,-186L938,-74L1021,-206Z" fill="#8f9097" stroke="#8f9097" stroke-width="1.51"/><path d="M910,298L1019,395L1027,312Z" fill="#cacacc" stroke="#cacacc" stroke-width="1.51"/><path d="M862,747L877,899L988,745Z" fill="#e2e2e2" stroke="#e2e2e2" stroke-width="1.51"/><path d="M989,905L877,899L1003,1014Z" fill="#e7e7e7" stroke="#e7e7e7" stroke-width="1.51"/><path d="M877,899L884,1056L1003,1014Z" fill="#e5e5e5" stroke="#e5e5e5" stroke-width="1.51"/><path d="M931,661L862,747L988,745Z" fill="#e2e2e2" stroke="#e2e2e2" stroke-width="1.51"/><path d="M880,523L931,661L990,626Z" fill="#e2e1e1" stroke="#e2e1e1" stroke-width="1.51"/><path d="M910,298L811,317L920,426Z" fill="#c5c5c8" stroke="#c5c5c8" stroke-width="1.51"/><path d="M880,523L753,678L931,661Z" fill="#dbdbdc" stroke="#dbdbdc" stroke-width="1.51"/><path d="M793,171L910,298L932,148Z" fill="#b4b4b9" stroke="#b4b4b9" stroke-width="1.51"/><path d="M772,96L793,171L932,148Z" fill="#a8a9ae" stroke="#a8a9ae" stroke-width="1.51"/><path d="M772,96L932,148L938,96Z" fill="#a9a9af" stroke="#a9a9af" stroke-width="1.51"/><path d="M877,-186L746,-44L938,-74Z" fill="#8e8f97" stroke="#8e8f97" stroke-width="1.51"/><path d="M772,96L938,96L938,-74Z" fill="#a0a1a7" stroke="#a0a1a7" stroke-width="1.51"/><path d="M746,-44L772,96L938,-74Z" fill="#96979e" stroke="#96979e" stroke-width="1.51"/><path d="M793,171L811,317L910,298Z" fill="#b7b8bc" stroke="#b7b8bc" stroke-width="1.51"/><path d="M884,1056L801,1118L916,1160Z" fill="#e2e2e3" stroke="#e2e2e3" stroke-width="1.51"/><path d="M753,678L862,747L931,661Z" fill="#dcdcdd" stroke="#dcdcdd" stroke-width="1.51"/><path d="M801,1118L747,1274L881,1298Z" fill="#dfdfe0" stroke="#dfdfe0" stroke-width="1.51"/><path d="M877,899L767,935L884,1056Z" fill="#dededf" stroke="#dededf" stroke-width="1.51"/><path d="M801,1118L881,1298L916,1160Z" fill="#e3e3e3" stroke="#e3e3e3" stroke-width="1.51"/><path d="M811,317L748,454L920,426Z" fill="#c7c7ca" stroke="#c7c7ca" stroke-width="1.51"/><path d="M778,505L880,523L920,426Z" fill="#d4d4d6" stroke="#d4d4d6" stroke-width="1.51"/><path d="M748,454L778,505L920,426Z" fill="#ceced0" stroke="#ceced0" stroke-width="1.51"/><path d="M862,747L782,749L877,899Z" fill="#dcdcdd" stroke="#dcdcdd" stroke-width="1.51"/><path d="M746,-180L746,-44L877,-186Z" fill="#85868f" stroke="#85868f" stroke-width="1.51"/><path d="M778,505L753,678L880,523Z" fill="#d7d7d8" stroke="#d7d7d8" stroke-width="1.51"/><path d="M60,1246L-60,1249L314,1295Z" fill="#a8a9af" stroke="#a8a9af" stroke-width="1.51"/><path d="M753,678L782,749L862,747Z" fill="#d8d8d9" stroke="#d8d8d9" stroke-width="1.51"/><path d="M782,749L767,935L877,899Z" fill="#dbdadb" stroke="#dbdadb" stroke-width="1.51"/><path d="M750,1037L801,1118L884,1056Z" fill="#ddddde" stroke="#ddddde" stroke-width="1.51"/><path d="M767,935L750,1037L884,1056Z" fill="#dbdcdd" stroke="#dbdcdd" stroke-width="1.51"/><path d="M690,-75L746,-44L746,-180Z" fill="#85868e" stroke="#85868e" stroke-width="1.51"/><path d="M668,1246L529,1296L747,1274Z" fill="#d3d3d5" stroke="#d3d3d5" stroke-width="1.51"/><path d="M695,548L690,660L753,678Z" fill="#d0d0d2" stroke="#d0d0d2" stroke-width="1.51"/><path d="M695,548L753,678L778,505Z" fill="#d2d2d4" stroke="#d2d2d4" stroke-width="1.51"/><path d="M676,878L767,935L782,749Z" fill="#d5d5d7" stroke="#d5d5d7" stroke-width="1.51"/><path d="M664,779L676,878L782,749Z" fill="#d2d2d4" stroke="#d2d2d4" stroke-width="1.51"/><path d="M668,1246L747,1274L801,1118Z" fill="#d9d9db" stroke="#d9d9db" stroke-width="1.51"/><path d="M640,1173L668,1246L801,1118Z" fill="#d6d6d8" stroke="#d6d6d8" stroke-width="1.51"/><path d="M692,434L748,454L811,317Z" fill="#c2c1c5" stroke="#c2c1c5" stroke-width="1.51"/><path d="M658,265L692,434L811,317Z" fill="#b7b8bc" stroke="#b7b8bc" stroke-width="1.51"/><path d="M793,171L658,265L811,317Z" fill="#afb0b5" stroke="#afb0b5" stroke-width="1.51"/><path d="M656,162L658,265L793,171Z" fill="#a5a6ac" stroke="#a5a6ac" stroke-width="1.51"/><path d="M750,1037L695,1051L801,1118Z" fill="#d8d8da" stroke="#d8d8da" stroke-width="1.51"/><path d="M695,1051L640,1173L801,1118Z" fill="#d6d6d8" stroke="#d6d6d8" stroke-width="1.51"/><path d="M746,-44L627,95L772,96Z" fill="#95969d" stroke="#95969d" stroke-width="1.51"/><path d="M772,96L656,162L793,171Z" fill="#a2a3a9" stroke="#a2a3a9" stroke-width="1.51"/><path d="M753,678L664,779L782,749Z" fill="#d3d3d5" stroke="#d3d3d5" stroke-width="1.51"/><path d="M695,1051L750,1037L767,935Z" fill="#d6d7d8" stroke="#d6d7d8" stroke-width="1.51"/><path d="M748,454L695,548L778,505Z" fill="#cdcdcf" stroke="#cdcdcf" stroke-width="1.51"/><path d="M690,660L664,779L753,678Z" fill="#d0d1d2" stroke="#d0d1d2" stroke-width="1.51"/><path d="M676,878L695,1051L767,935Z" fill="#d4d4d6" stroke="#d4d4d6" stroke-width="1.51"/><path d="M627,95L656,162L772,96Z" fill="#9b9ca2" stroke="#9b9ca2" stroke-width="1.51"/><path d="M690,-75L627,95L746,-44Z" fill="#8c8d95" stroke="#8c8d95" stroke-width="1.51"/><path d="M665,-192L690,-75L746,-180Z" fill="#7d7f88" stroke="#7d7f88" stroke-width="1.51"/><path d="M692,434L695,548L748,454Z" fill="#c7c8ca" stroke="#c7c8ca" stroke-width="1.51"/><path d="M578,693L664,779L690,660Z" fill="#ccccce" stroke="#ccccce" stroke-width="1.51"/><path d="M565,573L578,693L690,660Z" fill="#c8c9cb" stroke="#c8c9cb" stroke-width="1.51"/><path d="M665,-192L508,-41L690,-75Z" fill="#7c7e87" stroke="#7c7e87" stroke-width="1.51"/><path d="M508,-41L627,95L690,-75Z" fill="#868890" stroke="#868890" stroke-width="1.51"/><path d="M503,422L565,573L692,434Z" fill="#bdbec1" stroke="#bdbec1" stroke-width="1.51"/><path d="M565,316L503,422L692,434Z" fill="#b3b4b8" stroke="#b3b4b8" stroke-width="1.51"/><path d="M658,265L565,316L692,434Z" fill="#b1b2b6" stroke="#b1b2b6" stroke-width="1.51"/><path d="M692,434L565,573L695,548Z" fill="#c8c8ca" stroke="#c8c8ca" stroke-width="1.51"/><path d="M565,573L690,660L695,548Z" fill="#cbcbcd" stroke="#cbcbcd" stroke-width="1.51"/><path d="M547,1059L640,1173L695,1051Z" fill="#cfcfd2" stroke="#cfcfd2" stroke-width="1.51"/><path d="M676,878L559,882L695,1051Z" fill="#cfced1" stroke="#cfced1" stroke-width="1.51"/><path d="M559,882L547,1059L695,1051Z" fill="#cbcccf" stroke="#cbcccf" stroke-width="1.51"/><path d="M504,-217L508,-41L665,-192Z" fill="#73757e" stroke="#73757e" stroke-width="1.51"/><path d="M664,779L559,882L676,878Z" fill="#cccdcf" stroke="#cccdcf" stroke-width="1.51"/><path d="M656,162L501,154L658,265Z" fill="#9d9ea4" stroke="#9d9ea4" stroke-width="1.51"/><path d="M501,154L565,316L658,265Z" fill="#a1a2a8" stroke="#a1a2a8" stroke-width="1.51"/><path d="M640,1173L529,1296L668,1246Z" fill="#cfcfd2" stroke="#cfcfd2" stroke-width="1.51"/><path d="M578,693L522,746L664,779Z" fill="#c8c8cb" stroke="#c8c8cb" stroke-width="1.51"/><path d="M522,746L559,882L664,779Z" fill="#c8c8cb" stroke="#c8c8cb" stroke-width="1.51"/><path d="M508,-41L509,92L627,95Z" fill="#888a92" stroke="#888a92" stroke-width="1.51"/><path d="M547,1059L519,1141L640,1173Z" fill="#cacacd" stroke="#cacacd" stroke-width="1.51"/><path d="M627,95L501,154L656,162Z" fill="#96979e" stroke="#96979e" stroke-width="1.51"/><path d="M519,1141L529,1296L640,1173Z" fill="#cbcbce" stroke="#cbcbce" stroke-width="1.51"/><path d="M509,92L501,154L627,95Z" fill="#909198" stroke="#909198" stroke-width="1.51"/><path d="M47,-197L282,-151L399,-188Z" fill="#595b67" stroke="#595b67" stroke-width="1.51"/><path d="M522,746L438,796L559,882Z" fill="#c2c2c5" stroke="#c2c2c5" stroke-width="1.51"/><path d="M435,982L547,1059L559,882Z" fill="#c5c5c8" stroke="#c5c5c8" stroke-width="1.51"/><path d="M501,154L459,295L565,316Z" fill="#9d9ea4" stroke="#9d9ea4" stroke-width="1.51"/><path d="M503,422L459,510L565,573Z" fill="#babbbf" stroke="#babbbf" stroke-width="1.51"/><path d="M565,573L404,658L578,693Z" fill="#c0c1c4" stroke="#c0c1c4" stroke-width="1.51"/><path d="M404,658L522,746L578,693Z" fill="#c0c1c4" stroke="#c0c1c4" stroke-width="1.51"/><path d="M459,295L445,395L503,422Z" fill="#a8a8ae" stroke="#a8a8ae" stroke-width="1.51"/><path d="M504,-217L399,-188L508,-41Z" fill="#6c6e79" stroke="#6c6e79" stroke-width="1.51"/><path d="M519,1141L453,1297L529,1296Z" fill="#c7c7ca" stroke="#c7c7ca" stroke-width="1.51"/><path d="M459,295L503,422L565,316Z" fill="#a7a8ae" stroke="#a7a8ae" stroke-width="1.51"/><path d="M459,510L404,658L565,573Z" fill="#bdbdc1" stroke="#bdbdc1" stroke-width="1.51"/><path d="M438,796L395,910L559,882Z" fill="#bfc0c3" stroke="#bfc0c3" stroke-width="1.51"/><path d="M395,910L435,982L559,882Z" fill="#c0c0c4" stroke="#c0c0c4" stroke-width="1.51"/><path d="M427,1119L519,1141L547,1059Z" fill="#c5c5c8" stroke="#c5c5c8" stroke-width="1.51"/><path d="M435,982L427,1119L547,1059Z" fill="#c2c2c6" stroke="#c2c2c6" stroke-width="1.51"/><path d="M429,144L459,295L501,154Z" fill="#93949b" stroke="#93949b" stroke-width="1.51"/><path d="M388,-32L398,86L508,-41Z" fill="#7b7c85" stroke="#7b7c85" stroke-width="1.51"/><path d="M399,-188L388,-32L508,-41Z" fill="#71727c" stroke="#71727c" stroke-width="1.51"/><path d="M508,-41L398,86L509,92Z" fill="#83848c" stroke="#83848c" stroke-width="1.51"/><path d="M427,1119L453,1297L519,1141Z" fill="#c3c4c7" stroke="#c3c4c7" stroke-width="1.51"/><path d="M47,-197L171,-148L282,-151Z" fill="#565864" stroke="#565864" stroke-width="1.51"/><path d="M404,658L438,796L522,746Z" fill="#bdbdc1" stroke="#bdbdc1" stroke-width="1.51"/><path d="M445,395L459,510L503,422Z" fill="#b0b1b5" stroke="#b0b1b5" stroke-width="1.51"/><path d="M429,144L501,154L509,92Z" fill="#8c8e95" stroke="#8c8e95" stroke-width="1.51"/><path d="M398,86L429,144L509,92Z" fill="#878991" stroke="#878991" stroke-width="1.51"/><path d="M289,1143L314,1295L427,1119Z" fill="#bababe" stroke="#bababe" stroke-width="1.51"/><path d="M297,1042L427,1119L435,982Z" fill="#bbbcc0" stroke="#bbbcc0" stroke-width="1.51"/><path d="M404,658L310,798L438,796Z" fill="#b8b8bd" stroke="#b8b8bd" stroke-width="1.51"/><path d="M427,1119L314,1295L453,1297Z" fill="#bfbfc3" stroke="#bfbfc3" stroke-width="1.51"/><path d="M307,570L404,658L459,510Z" fill="#b6b7bb" stroke="#b6b7bb" stroke-width="1.51"/><path d="M445,395L313,439L459,510Z" fill="#acadb2" stroke="#acadb2" stroke-width="1.51"/><path d="M313,439L307,570L459,510Z" fill="#b0b0b5" stroke="#b0b0b5" stroke-width="1.51"/><path d="M429,144L322,209L459,295Z" fill="#909299" stroke="#909299" stroke-width="1.51"/><path d="M296,279L445,395L459,295Z" fill="#9d9ea4" stroke="#9d9ea4" stroke-width="1.51"/><path d="M322,209L296,279L459,295Z" fill="#93939b" stroke="#93939b" stroke-width="1.51"/><path d="M296,279L313,439L445,395Z" fill="#9fa0a6" stroke="#9fa0a6" stroke-width="1.51"/><path d="M307,570L318,636L404,658Z" fill="#b3b4b8" stroke="#b3b4b8" stroke-width="1.51"/><path d="M310,798L395,910L438,796Z" fill="#b8b9bd" stroke="#b8b9bd" stroke-width="1.51"/><path d="M282,-151L388,-32L399,-188Z" fill="#676974" stroke="#676974" stroke-width="1.51"/><path d="M395,910L291,930L435,982Z" fill="#b9b9bd" stroke="#b9b9bd" stroke-width="1.51"/><path d="M291,930L297,1042L435,982Z" fill="#b7b8bc" stroke="#b7b8bc" stroke-width="1.51"/><path d="M297,1042L289,1143L427,1119Z" fill="#b9b9bd" stroke="#b9b9bd" stroke-width="1.51"/><path d="M398,86L322,209L429,144Z" fill="#878891" stroke="#878891" stroke-width="1.51"/><path d="M318,636L310,798L404,658Z" fill="#b4b5b9" stroke="#b4b5b9" stroke-width="1.51"/><path d="M282,-151L273,-60L388,-32Z" fill="#696b75" stroke="#696b75" stroke-width="1.51"/><path d="M310,798L291,930L395,910Z" fill="#b5b6ba" stroke="#b5b6ba" stroke-width="1.51"/><path d="M388,-32L261,51L398,86Z" fill="#787a83" stroke="#787a83" stroke-width="1.51"/><path d="M261,51L322,209L398,86Z" fill="#7f8189" stroke="#7f8189" stroke-width="1.51"/><path d="M273,-60L261,51L388,-32Z" fill="#70727b" stroke="#70727b" stroke-width="1.51"/><path d="M189,271L155,393L296,279Z" fill="#8e8f97" stroke="#8e8f97" stroke-width="1.51"/><path d="M217,807L291,930L310,798Z" fill="#b0b1b6" stroke="#b0b1b6" stroke-width="1.51"/><path d="M296,279L155,393L313,439Z" fill="#97989f" stroke="#97989f" stroke-width="1.51"/><path d="M200,523L307,570L313,439Z" fill="#a9aaaf" stroke="#a9aaaf" stroke-width="1.51"/><path d="M201,1223L60,1246L314,1295Z" fill="#afafb4" stroke="#afafb4" stroke-width="1.51"/><path d="M289,1143L201,1223L314,1295Z" fill="#b5b5b9" stroke="#b5b5b9" stroke-width="1.51"/><path d="M217,807L310,798L318,636Z" fill="#afb0b5" stroke="#afb0b5" stroke-width="1.51"/><path d="M174,627L217,807L318,636Z" fill="#acacb1" stroke="#acacb1" stroke-width="1.51"/><path d="M197,82L151,212L322,209Z" fill="#7e7f88" stroke="#7e7f88" stroke-width="1.51"/><path d="M189,271L296,279L322,209Z" fill="#8b8c94" stroke="#8b8c94" stroke-width="1.51"/><path d="M151,212L189,271L322,209Z" fill="#85868e" stroke="#85868e" stroke-width="1.51"/><path d="M261,51L197,82L322,209Z" fill="#7a7c85" stroke="#7a7c85" stroke-width="1.51"/><path d="M307,570L174,627L318,636Z" fill="#adaeb3" stroke="#adaeb3" stroke-width="1.51"/><path d="M291,930L156,1037L297,1042Z" fill="#b0b1b6" stroke="#b0b1b6" stroke-width="1.51"/><path d="M155,393L200,523L313,439Z" fill="#9e9fa5" stroke="#9e9fa5" stroke-width="1.51"/><path d="M186,1159L289,1143L297,1042Z" fill="#b2b3b7" stroke="#b2b3b7" stroke-width="1.51"/><path d="M156,1037L186,1159L297,1042Z" fill="#aeaeb4" stroke="#aeaeb4" stroke-width="1.51"/><path d="M200,523L174,627L307,570Z" fill="#aaaab0" stroke="#aaaab0" stroke-width="1.51"/><path d="M186,1159L201,1223L289,1143Z" fill="#b0b1b6" stroke="#b0b1b6" stroke-width="1.51"/><path d="M217,807L154,912L291,930Z" fill="#adadb2" stroke="#adadb2" stroke-width="1.51"/><path d="M154,912L156,1037L291,930Z" fill="#acacb2" stroke="#acacb2" stroke-width="1.51"/><path d="M171,-148L273,-60L282,-151Z" fill="#60626d" stroke="#60626d" stroke-width="1.51"/><path d="M144,-61L261,51L273,-60Z" fill="#696b75" stroke="#696b75" stroke-width="1.51"/><path d="M144,-61L197,82L261,51Z" fill="#6c6e78" stroke="#6c6e78" stroke-width="1.51"/><path d="M171,-148L144,-61L273,-60Z" fill="#60626d" stroke="#60626d" stroke-width="1.51"/><path d="M-159,-202L-85,-184L47,-197Z" fill="#434552" stroke="#434552" stroke-width="1.51"/><path d="M174,627L77,763L217,807Z" fill="#a6a6ac" stroke="#a6a6ac" stroke-width="1.51"/><path d="M97,640L77,763L174,627Z" fill="#a2a3a9" stroke="#a2a3a9" stroke-width="1.51"/><path d="M93,313L155,393L189,271Z" fill="#8a8b93" stroke="#8a8b93" stroke-width="1.51"/><path d="M155,393L80,447L200,523Z" fill="#999aa0" stroke="#999aa0" stroke-width="1.51"/><path d="M79,895L154,912L217,807Z" fill="#a7a8ae" stroke="#a7a8ae" stroke-width="1.51"/><path d="M77,763L79,895L217,807Z" fill="#a5a5ab" stroke="#a5a5ab" stroke-width="1.51"/><path d="M156,1037L92,1172L186,1159Z" fill="#a9aaaf" stroke="#a9aaaf" stroke-width="1.51"/><path d="M144,-61L25,25L197,82Z" fill="#666872" stroke="#666872" stroke-width="1.51"/><path d="M54,198L151,212L197,82Z" fill="#777882" stroke="#777882" stroke-width="1.51"/><path d="M55,558L174,627L200,523Z" fill="#a3a4aa" stroke="#a3a4aa" stroke-width="1.51"/><path d="M186,1159L92,1172L201,1223Z" fill="#abacb1" stroke="#abacb1" stroke-width="1.51"/><path d="M92,1172L60,1246L201,1223Z" fill="#a8a9af" stroke="#a8a9af" stroke-width="1.51"/><path d="M80,447L55,558L200,523Z" fill="#9c9da4" stroke="#9c9da4" stroke-width="1.51"/><path d="M55,558L97,640L174,627Z" fill="#a1a2a8" stroke="#a1a2a8" stroke-width="1.51"/><path d="M25,25L54,198L197,82Z" fill="#6d6f79" stroke="#6d6f79" stroke-width="1.51"/><path d="M151,212L93,313L189,271Z" fill="#83848d" stroke="#83848d" stroke-width="1.51"/><path d="M74,-66L25,25L144,-61Z" fill="#5e5f6b" stroke="#5e5f6b" stroke-width="1.51"/><path d="M39,1056L92,1172L156,1037Z" fill="#a5a6ac" stroke="#a5a6ac" stroke-width="1.51"/><path d="M154,912L79,895L156,1037Z" fill="#a7a7ac" stroke="#a7a7ac" stroke-width="1.51"/><path d="M79,895L39,1056L156,1037Z" fill="#a4a4ab" stroke="#a4a4ab" stroke-width="1.51"/><path d="M74,-66L144,-61L171,-148Z" fill="#5b5d68" stroke="#5b5d68" stroke-width="1.51"/><path d="M47,-197L74,-66L171,-148Z" fill="#545662" stroke="#545662" stroke-width="1.51"/><path d="M54,198L93,313L151,212Z" fill="#7d7e88" stroke="#7d7e88" stroke-width="1.51"/><path d="M93,313L80,447L155,393Z" fill="#8e8f97" stroke="#8e8f97" stroke-width="1.51"/><path d="M25,25L-47,94L54,198Z" fill="#686974" stroke="#686974" stroke-width="1.51"/><path d="M-41,1026L39,1056L79,895Z" fill="#9f9fa6" stroke="#9f9fa6" stroke-width="1.51"/><path d="M77,763L-54,775L79,895Z" fill="#9d9ea5" stroke="#9d9ea5" stroke-width="1.51"/><path d="M54,198L-72,279L93,313Z" fill="#7a7c85" stroke="#7a7c85" stroke-width="1.51"/><path d="M-25,435L80,447L93,313Z" fill="#8b8d94" stroke="#8b8d94" stroke-width="1.51"/><path d="M-72,279L-25,435L93,313Z" fill="#81828b" stroke="#81828b" stroke-width="1.51"/><path d="M-35,639L77,763L97,640Z" fill="#9d9ea4" stroke="#9d9ea4" stroke-width="1.51"/><path d="M55,558L-35,639L97,640Z" fill="#9c9da3" stroke="#9c9da3" stroke-width="1.51"/><path d="M47,-197L-66,-77L74,-66Z" fill="#51535f" stroke="#51535f" stroke-width="1.51"/><path d="M-25,435L55,558L80,447Z" fill="#94959c" stroke="#94959c" stroke-width="1.51"/><path d="M39,1056L-94,1129L92,1172Z" fill="#9fa0a7" stroke="#9fa0a7" stroke-width="1.51"/><path d="M-35,639L-54,775L77,763Z" fill="#999aa1" stroke="#999aa1" stroke-width="1.51"/><path d="M-60,1249L60,1246L92,1172Z" fill="#a2a3a9" stroke="#a2a3a9" stroke-width="1.51"/><path d="M-94,1129L-60,1249L92,1172Z" fill="#9e9ea5" stroke="#9e9ea5" stroke-width="1.51"/><path d="M-100,938L-41,1026L79,895Z" fill="#9b9ba2" stroke="#9b9ba2" stroke-width="1.51"/><path d="M-54,775L-100,938L79,895Z" fill="#999ba2" stroke="#999ba2" stroke-width="1.51"/><path d="M-66,-77L25,25L74,-66Z" fill="#585a66" stroke="#585a66" stroke-width="1.51"/><path d="M-85,-184L-66,-77L47,-197Z" fill="#494b58" stroke="#494b58" stroke-width="1.51"/><path d="M-25,435L-86,566L55,558Z" fill="#94959c" stroke="#94959c" stroke-width="1.51"/><path d="M-47,94L-99,194L54,198Z" fill="#6b6d77" stroke="#6b6d77" stroke-width="1.51"/><path d="M-99,194L-72,279L54,198Z" fill="#71737d" stroke="#71737d" stroke-width="1.51"/><path d="M-86,566L-35,639L55,558Z" fill="#97989e" stroke="#97989e" stroke-width="1.51"/><path d="M-41,1026L-94,1129L39,1056Z" fill="#9b9ca3" stroke="#9b9ca3" stroke-width="1.51"/><path d="M-66,-77L-47,94L25,25Z" fill="#5b5d68" stroke="#5b5d68" stroke-width="1.51"/><path d="M-165,810L-144,922L-100,938Z" fill="#91929a" stroke="#91929a" stroke-width="1.51"/><path d="M-154,333L-157,381L-72,279Z" fill="#777881" stroke="#777881" stroke-width="1.51"/><path d="M-165,810L-100,938L-54,775Z" fill="#93949c" stroke="#93949c" stroke-width="1.51"/><path d="M-66,-77L-186,40L-47,94Z" fill="#575965" stroke="#575965" stroke-width="1.51"/><path d="M-206,691L-54,775L-35,639Z" fill="#92939b" stroke="#92939b" stroke-width="1.51"/><path d="M-178,530L-86,566L-25,435Z" fill="#8e8e96" stroke="#8e8e96" stroke-width="1.51"/><path d="M-157,381L-178,530L-25,435Z" fill="#84868e" stroke="#84868e" stroke-width="1.51"/><path d="M-72,279L-157,381L-25,435Z" fill="#7d7f88" stroke="#7d7f88" stroke-width="1.51"/><path d="M-156,1023L-94,1129L-41,1026Z" fill="#97979f" stroke="#97979f" stroke-width="1.51"/><path d="M-86,566L-206,691L-35,639Z" fill="#919299" stroke="#919299" stroke-width="1.51"/><path d="M-94,1129L-175,1232L-60,1249Z" fill="#97989f" stroke="#97989f" stroke-width="1.51"/><path d="M-100,938L-156,1023L-41,1026Z" fill="#95969e" stroke="#95969e" stroke-width="1.51"/><path d="M-206,691L-165,810L-54,775Z" fill="#909099" stroke="#909099" stroke-width="1.51"/><path d="M-186,40L-99,194L-47,94Z" fill="#60616c" stroke="#60616c" stroke-width="1.51"/><path d="M-186,40L-149,202L-99,194Z" fill="#61636e" stroke="#61636e" stroke-width="1.51"/><path d="M-85,-184L-159,-202L-66,-77Z" fill="#454754" stroke="#454754" stroke-width="1.51"/><path d="M-159,-202L-218,-76L-66,-77Z" fill="#454855" stroke="#454855" stroke-width="1.51"/><path d="M-218,-76L-186,40L-66,-77Z" fill="#4d4f5c" stroke="#4d4f5c" stroke-width="1.51"/><path d="M-99,194L-149,202L-72,279Z" fill="#6c6e78" stroke="#6c6e78" stroke-width="1.51"/><path d="M-195,1153L-175,1232L-94,1129Z" fill="#93949c" stroke="#93949c" stroke-width="1.51"/><path d="M-178,530L-206,691L-86,566Z" fill="#8d8e96" stroke="#8d8e96" stroke-width="1.51"/><path d="M-149,202L-154,333L-72,279Z" fill="#70727c" stroke="#70727c" stroke-width="1.51"/><path d="M-156,1023L-195,1153L-94,1129Z" fill="#93949c" stroke="#93949c" stroke-width="1.51"/><path d="M-144,922L-156,1023L-100,938Z" fill="#93939b" stroke="#93939b" stroke-width="1.51"/><path d="M-165,810L-156,1023L-144,922Z" fill="#909299" stroke="#909299" stroke-width="1.51"/><path d="M-186,40L-154,333L-149,202Z" fill="#656771" stroke="#656771" stroke-width="1.51"/><path d="M-206,691L-195,1153L-165,810Z" fill="#8e8e97" stroke="#8e8e97" stroke-width="1.51"/><path d="M-165,810L-195,1153L-156,1023Z" fill="#909199" stroke="#909199" stroke-width="1.51"/><path d="M-186,40L-157,381L-154,333Z" fill="#6b6d77" stroke="#6b6d77" stroke-width="1.51"/><path d="M-186,40L-178,530L-157,381Z" fill="#72737d" stroke="#72737d" stroke-width="1.51"/><path d="M-186,40L-218,-76L-178,530Z" fill="#60626c" stroke="#60626c" stroke-width="1.51"/><path d="M-218,-76L-206,691L-178,530Z" fill="#777982" stroke="#777982" stroke-width="1.51"/></svg>